<svg width="30" height="24" viewBox="0 0 30 24" fill="none" xmlns="http://www.w3.org/2000/svg">
<path d="M0.626425 2.57555C4.74381 6.06252 11.9685 12.1972 14.092 14.11C14.377 14.3681 14.6828 14.4994 15.0002 14.4994C15.3169 14.4994 15.6221 14.3694 15.9066 14.1124C18.0318 12.1978 25.2565 6.06252 29.374 2.57555C29.6303 2.35887 29.6694 1.97801 29.4619 1.71311C28.9821 1.10098 28.2668 0.75 27.5002 0.75H2.50019C1.73361 0.75 1.01824 1.10098 0.538535 1.71316C0.330995 1.97801 0.370077 2.35887 0.626425 2.57555Z" fill="#373810"/>
<path d="M29.6375 4.46525C29.4159 4.36213 29.1553 4.3981 28.971 4.5556C24.4049 8.42642 18.5773 13.388 16.7438 15.0402C15.7147 15.9691 14.2864 15.9691 13.255 15.039C11.3006 13.2781 4.75641 7.71474 1.02902 4.55554C0.843457 4.39804 0.582246 4.3633 0.36252 4.46519C0.141621 4.56779 0 4.78875 0 5.03226V20.75C0 22.1289 1.12119 23.2501 2.50002 23.2501H27.5C28.8788 23.2501 30 22.1289 30 20.75V5.03226C30 4.78875 29.8584 4.5672 29.6375 4.46525Z" fill="#373810"/>
</svg>
