<svg width="126" height="28" viewBox="0 0 126 28" fill="none" xmlns="http://www.w3.org/2000/svg">
<path d="M10.852 20.664H8.548V27H0.0520001V1.8H12.184C14.512 1.8 16.54 2.184 18.268 2.952C19.996 3.72 21.328 4.824 22.264 6.264C23.2 7.704 23.668 9.384 23.668 11.304C23.668 13.104 23.26 14.676 22.444 16.02C21.628 17.364 20.452 18.432 18.916 19.224L24.208 27H15.136L10.852 20.664ZM15.1 11.304C15.1 10.368 14.812 9.648 14.236 9.144C13.66 8.616 12.796 8.352 11.644 8.352H8.548V14.256H11.644C12.796 14.256 13.66 14.004 14.236 13.5C14.812 12.972 15.1 12.24 15.1 11.304ZM47.5762 17.136C47.5762 17.256 47.5402 17.892 47.4682 19.044H33.7882C34.0762 19.788 34.5562 20.364 35.2282 20.772C35.9002 21.156 36.7402 21.348 37.7482 21.348C38.6122 21.348 39.3322 21.24 39.9082 21.024C40.5082 20.808 41.1562 20.436 41.8522 19.908L46.1002 24.192C44.1802 26.304 41.3122 27.36 37.4962 27.36C35.1202 27.36 33.0322 26.928 31.2322 26.064C29.4322 25.176 28.0402 23.952 27.0562 22.392C26.0722 20.832 25.5802 19.08 25.5802 17.136C25.5802 15.168 26.0602 13.416 27.0202 11.88C28.0042 10.32 29.3362 9.108 31.0162 8.244C32.7202 7.38 34.6282 6.948 36.7402 6.948C38.7322 6.948 40.5442 7.344 42.1762 8.136C43.8322 8.928 45.1402 10.092 46.1002 11.628C47.0842 13.164 47.5762 15 47.5762 17.136ZM36.8122 12.492C35.9722 12.492 35.2762 12.72 34.7242 13.176C34.1722 13.632 33.8122 14.28 33.6442 15.12H39.9802C39.8122 14.304 39.4522 13.668 38.9002 13.212C38.3482 12.732 37.6522 12.492 36.8122 12.492ZM71.7162 7.308L63.7962 27H55.3722L47.4522 7.308H55.8042L59.7642 17.856L64.0122 7.308H71.7162ZM82.8368 27.36C80.6528 27.36 78.6848 26.928 76.9328 26.064C75.2048 25.176 73.8488 23.964 72.8648 22.428C71.8808 20.868 71.3888 19.104 71.3888 17.136C71.3888 15.168 71.8808 13.416 72.8648 11.88C73.8488 10.32 75.2048 9.108 76.9328 8.244C78.6848 7.38 80.6528 6.948 82.8368 6.948C85.0448 6.948 87.0128 7.38 88.7408 8.244C90.4928 9.108 91.8488 10.32 92.8088 11.88C93.7928 13.416 94.2848 15.168 94.2848 17.136C94.2848 19.104 93.7928 20.868 92.8088 22.428C91.8488 23.964 90.4928 25.176 88.7408 26.064C87.0128 26.928 85.0448 27.36 82.8368 27.36ZM82.8368 21.024C83.7728 21.024 84.5408 20.688 85.1408 20.016C85.7408 19.32 86.0408 18.36 86.0408 17.136C86.0408 15.912 85.7408 14.964 85.1408 14.292C84.5408 13.62 83.7728 13.284 82.8368 13.284C81.9008 13.284 81.1328 13.62 80.5328 14.292C79.9328 14.964 79.6328 15.912 79.6328 17.136C79.6328 18.36 79.9328 19.32 80.5328 20.016C81.1328 20.688 81.9008 21.024 82.8368 21.024ZM96.8313 0.287998H104.967V27H96.8313V0.287998ZM125.613 26.316C124.389 27.012 122.721 27.36 120.609 27.36C117.849 27.36 115.725 26.7 114.237 25.38C112.749 24.036 112.005 22.032 112.005 19.368V14.328H109.305V8.388H112.005V2.88H120.141V8.388H124.173V14.328H120.141V19.296C120.141 19.896 120.297 20.364 120.609 20.7C120.921 21.036 121.329 21.204 121.833 21.204C122.529 21.204 123.141 21.024 123.669 20.664L125.613 26.316Z" fill="white"/>
</svg>
