<svg width="112" height="112" viewBox="0 0 112 112" fill="none" xmlns="http://www.w3.org/2000/svg">
<rect width="112" height="112" rx="5" fill="#999C48" fill-opacity="0.2"/>
<g clip-path="url(#clip0)">
<path d="M46.9328 68.375C46.2228 68.375 45.6442 68.9536 45.6442 69.6641C45.6442 70.3746 46.2228 70.9531 46.9328 70.9531C47.6428 70.9531 48.2213 70.3746 48.2213 69.6641C48.2213 68.9536 47.6428 68.375 46.9328 68.375Z" fill="#FFFF00"/>
<path d="M65.4862 68.375C64.7762 68.375 64.1976 68.9536 64.1976 69.6641C64.1976 70.3746 64.7762 70.9531 65.4862 70.9531C66.1962 70.9531 66.7747 70.3746 66.7747 69.6641C66.7747 68.9536 66.1962 68.375 65.4862 68.375Z" fill="#FFFF00"/>
<path d="M87.7759 81.2656H87.3897V42.3359H87.8403C88.2794 42.3359 88.6888 42.1119 88.9255 41.7418C89.1626 41.3712 89.1944 40.9059 89.0101 40.5066L81.2797 23.7488C81.0692 23.2926 80.6125 23 80.11 23H32.3089C31.8064 23 31.3497 23.2926 31.1392 23.7488L23.4084 40.5066C23.2241 40.9059 23.2563 41.3712 23.493 41.7418C23.7296 42.1119 24.139 42.3359 24.5781 42.3359H25.0293V81.2656H24.3852C23.6737 81.2656 23.1289 81.8427 23.1289 82.5547V87.7109C23.1289 88.4229 23.6737 89 24.3852 89H87.7759C88.4874 89 89.0967 88.4229 89.0967 87.7109V82.5547C89.0967 81.8427 88.4874 81.2656 87.7759 81.2656ZM70.6399 70.9531H79.6588V73.5312H69.3564C69.3549 73.5312 69.3534 73.5307 69.3514 73.5307H64.1976C64.1961 73.5307 64.1946 73.5312 64.1926 73.5312H61.3632V65.7969H79.6588V68.375H70.6399C69.9299 68.375 69.3514 68.9536 69.3514 69.6641C69.3514 70.3746 69.9299 70.9531 70.6399 70.9531ZM79.6588 76.1094V81.2656H70.6399V76.1094H79.6588ZM68.0628 76.1094V81.2656H65.4862V76.1094H68.0628ZM60.0746 63.2188C59.3631 63.2188 58.7861 63.7958 58.7861 64.5078V74.8203C58.7861 75.5323 59.3631 76.1094 60.0746 76.1094H62.9091V81.2656H49.5094V76.1094H52.3443C53.0558 76.1094 53.6324 75.5323 53.6324 74.8203V64.5078C53.6324 63.7958 53.0558 63.2188 52.3443 63.2188H32.7601V58.8339L48.3819 42.3359H64.037L79.6588 58.8339V63.2188H60.0746ZM43.0676 73.5307C43.0656 73.5307 43.0641 73.5312 43.0625 73.5312H32.7601V70.9531H41.779C42.489 70.9531 43.0676 70.3746 43.0676 69.6641C43.0676 68.9536 42.489 68.375 41.779 68.375H32.7601V65.7969H51.0557V73.5312H48.2263C48.2243 73.5312 48.2228 73.5307 48.2213 73.5307H43.0676ZM46.9328 76.1094V81.2656H44.3561V76.1094H46.9328ZM37.1112 42.3359L32.7601 46.9529V42.3359H37.1112ZM45.3834 25.5781H46.3663L49.6368 32.668L46.3663 39.7578H45.4377L41.8903 32.0677L45.3834 25.5781ZM40.5398 29.1397L38.8968 25.5781H42.4563L40.5398 29.1397ZM56.6737 25.5781L59.9442 32.668L56.6737 39.7578H55.7452L52.4747 32.668L55.7452 25.5781H56.6737ZM67.0356 25.5781L70.5286 32.0677L66.9812 39.7578H66.0527L62.7822 32.668L66.0527 25.5781H67.0356ZM69.9627 25.5781H73.5222L71.8791 29.1397L69.9627 25.5781ZM69.8192 39.7578L72.0569 34.9072L74.6672 39.7578H69.8192ZM63.2147 39.7578H59.5117L61.3632 35.7441L63.2147 39.7578ZM61.3632 29.5918L59.5117 25.5781H63.2147L61.3632 29.5918ZM44.7106 42.4648L32.7601 55.0851V50.7108L40.5312 42.4648H44.7106ZM52.9073 39.7578H49.2042L51.0557 35.7441L52.9073 39.7578ZM51.0557 29.5918L49.2042 25.5781H52.9073L51.0557 29.5918ZM42.5998 39.7578H37.7517L40.3621 34.9072L42.5998 39.7578ZM32.7601 76.1094H41.779V81.2656H32.7601V76.1094ZM67.7083 42.4648H71.8877L79.6588 50.7113V55.0856L67.7083 42.4648ZM75.3077 42.3359H79.6588V46.9529L75.3077 42.3359ZM82.2359 42.3359H84.8126V81.2656H82.2359V42.3359ZM85.8267 39.7573L77.5938 39.7578L73.4074 31.9791L76.3601 25.5781H79.2857L85.8267 39.7573ZM33.1332 25.5781H36.0588L39.0116 31.9791L34.8251 39.7578L26.5923 39.7573L33.1332 25.5781ZM30.183 42.3359V81.2656H27.6064V42.3359H30.183ZM86.4878 86.4219H25.6733V83.8438H86.4878V86.4219Z" fill="#FFFF00"/>
</g>
<defs>
<clipPath id="clip0">
<rect x="23" y="23" width="66" height="66" fill="white"/>
</clipPath>
</defs>
</svg>
