<svg width="112" height="114" viewBox="0 0 112 114" fill="none" xmlns="http://www.w3.org/2000/svg">
<rect width="112" height="112" rx="5" fill="#999C48" fill-opacity="0.2"/>
<path d="M37.4531 39.6001H35.0469V42.0001H37.4531V39.6001Z" fill="#FFFF00"/>
<path d="M37.4531 44.3999H35.0469V46.7999H37.4531V44.3999Z" fill="#FFFF00"/>
<path d="M35.0469 42H32.6406V44.4H35.0469V42Z" fill="#FFFF00"/>
<path d="M39.8594 42H37.4531V44.4H39.8594V42Z" fill="#FFFF00"/>
<path d="M27.8281 33.6001H25.4219V36.0001H27.8281V33.6001Z" fill="#FFFF00"/>
<path d="M27.8281 38.3999H25.4219V40.7999H27.8281V38.3999Z" fill="#FFFF00"/>
<path d="M25.4219 36H23.0156V38.4H25.4219V36Z" fill="#FFFF00"/>
<path d="M30.2344 36H27.8281V38.4H30.2344V36Z" fill="#FFFF00"/>
<path d="M59.1095 92.4V66H62.7188C63.0379 66 63.3439 65.8735 63.5696 65.6485C63.7952 65.4235 63.922 65.1182 63.922 64.8V39.6H66.3282C66.544 39.5996 66.7557 39.5414 66.9412 39.4313C67.1267 39.3213 67.2791 39.1636 67.3824 38.9746C67.4858 38.7856 67.5362 38.5724 67.5286 38.3573C67.5209 38.1422 67.4554 37.9331 67.3388 37.752L56.5107 20.952C56.4016 20.7836 56.252 20.6451 56.0755 20.5492C55.8989 20.4533 55.7011 20.4031 55.5001 20.4031C55.2991 20.4031 55.1013 20.4533 54.9247 20.5492C54.7482 20.6451 54.5985 20.7836 54.4895 20.952L43.6613 37.752C43.5448 37.9331 43.4793 38.1422 43.4716 38.3573C43.4639 38.5724 43.5144 38.7856 43.6177 38.9746C43.7211 39.1636 43.8735 39.3213 44.059 39.4313C44.2444 39.5414 44.4562 39.5996 44.672 39.6H47.0782V64.8C47.0782 65.1182 47.205 65.4235 47.4306 65.6485C47.6562 65.8735 47.9622 66 48.2813 66H51.8907V92.4H59.1095ZM56.7032 90H54.297V66H56.7032V90ZM61.5157 49.38L49.4845 51.384V46.584L61.5157 44.58V49.38ZM49.4845 53.82L61.5157 51.816V56.616L49.4845 58.584V53.82ZM55.5001 23.82L64.1265 37.2H46.8737L55.5001 23.82ZM61.5157 39.6V42.18L49.4845 44.184V39.6H61.5157ZM49.4845 63.6V61.02L61.5157 59.016V63.6H49.4845Z" fill="#FFFF00"/>
<path d="M43.4688 69.5999C43.4688 69.2816 43.342 68.9764 43.1164 68.7514C42.8907 68.5263 42.5847 68.3999 42.2656 68.3999C39.0747 68.3999 36.0145 69.6642 33.7582 71.9146C31.5019 74.1651 30.2344 77.2173 30.2344 80.3999C30.2344 80.7182 30.3611 81.0234 30.5868 81.2484C30.8124 81.4735 31.1184 81.5999 31.4375 81.5999C31.7566 81.5999 32.0626 81.4735 32.2882 81.2484C32.5139 81.0234 32.6406 80.7182 32.6406 80.3999C32.6406 77.8538 33.6547 75.412 35.4597 73.6117C37.2648 71.8113 39.7129 70.7999 42.2656 70.7999C42.5847 70.7999 42.8907 70.6735 43.1164 70.4484C43.342 70.2234 43.4688 69.9182 43.4688 69.5999Z" fill="#FFFF00"/>
<path d="M30.2344 57.6001C29.9153 57.6001 29.6093 57.7265 29.3836 57.9516C29.158 58.1766 29.0312 58.4818 29.0312 58.8001C29.0312 63.4321 33.8438 67.2001 39.8594 67.2001C40.1785 67.2001 40.4845 67.0737 40.7101 66.8486C40.9357 66.6236 41.0625 66.3184 41.0625 66.0001C41.0625 65.6818 40.9357 65.3766 40.7101 65.1516C40.4845 64.9265 40.1785 64.8001 39.8594 64.8001C35.2153 64.8001 31.4375 62.1121 31.4375 58.8001C31.4375 58.4818 31.3107 58.1766 31.0851 57.9516C30.8595 57.7265 30.5535 57.6001 30.2344 57.6001Z" fill="#FFFF00"/>
<path d="M46.3321 75.5161C46.6289 75.3967 46.8659 75.1647 46.9911 74.871C47.1164 74.5773 47.1195 74.2461 46.9998 73.9501C46.8802 73.6541 46.6475 73.4177 46.3531 73.2928C46.0586 73.1679 45.7265 73.1647 45.4298 73.2841C44.5225 73.6681 43.7003 74.2273 43.0106 74.9296C42.321 75.6319 41.7774 76.4634 41.4113 77.3761C41.1255 78.3893 41.069 79.4532 41.2458 80.4908C41.4227 81.5285 41.8285 82.514 42.434 83.3761C42.5359 83.5619 42.6853 83.7175 42.867 83.8271C43.0487 83.9367 43.2563 83.9964 43.4687 84.0001C43.6846 84 43.8965 83.942 44.0823 83.8321C44.3566 83.6697 44.5551 83.4053 44.6341 83.0971C44.7131 82.7888 44.666 82.4618 44.5034 82.1881C44.0759 81.6185 43.7808 80.9613 43.6393 80.2639C43.4978 79.5666 43.5135 78.8466 43.6852 78.1561C44.192 76.9678 45.1407 76.0215 46.3321 75.5161Z" fill="#FFFF00"/>
<path d="M30.8359 86.4C31.1929 86.4 31.5418 86.2945 31.8386 86.0967C32.1353 85.8989 32.3667 85.6178 32.5033 85.2889C32.6398 84.96 32.6756 84.598 32.6059 84.2489C32.5363 83.8997 32.3644 83.579 32.112 83.3273C31.8597 83.0755 31.5381 82.9041 31.188 82.8346C30.8379 82.7652 30.4751 82.8008 30.1453 82.9371C29.8156 83.0733 29.5337 83.304 29.3354 83.6C29.1371 83.896 29.0312 84.244 29.0312 84.6C29.0313 85.0774 29.2214 85.5353 29.5598 85.8728C29.8983 86.2104 30.3573 86.4 30.8359 86.4ZM30.8359 84C30.9549 84 31.0712 84.0352 31.1701 84.1012C31.2691 84.1671 31.3462 84.2608 31.3917 84.3704C31.4372 84.4801 31.4492 84.6007 31.4259 84.7171C31.4027 84.8335 31.3454 84.9404 31.2613 85.0243C31.1772 85.1082 31.07 85.1654 30.9533 85.1885C30.8366 85.2117 30.7157 85.1998 30.6057 85.1544C30.4958 85.109 30.4019 85.0321 30.3358 84.9334C30.2697 84.8347 30.2344 84.7187 30.2344 84.6C30.2344 84.4409 30.2978 84.2883 30.4106 84.1758C30.5234 84.0633 30.6764 84 30.8359 84Z" fill="#FFFF00"/>
<path d="M35.0469 78.6C35.0469 78.9561 35.1527 79.3041 35.351 79.6001C35.5493 79.8961 35.8312 80.1268 36.1609 80.263C36.4907 80.3993 36.8536 80.4349 37.2036 80.3655C37.5537 80.296 37.8753 80.1246 38.1277 79.8728C38.3801 79.6211 38.5519 79.3004 38.6216 78.9512C38.6912 78.602 38.6555 78.2401 38.5189 77.9112C38.3823 77.5823 38.151 77.3012 37.8542 77.1034C37.5574 76.9056 37.2085 76.8 36.8516 76.8C36.3729 76.8 35.9139 76.9897 35.5755 77.3273C35.237 77.6648 35.0469 78.1227 35.0469 78.6ZM37.4531 78.6C37.4531 78.7187 37.4178 78.8347 37.3517 78.9334C37.2856 79.0321 37.1917 79.109 37.0818 79.1544C36.9718 79.1998 36.8509 79.2117 36.7342 79.1885C36.6175 79.1654 36.5103 79.1082 36.4262 79.0243C36.3421 78.9404 36.2848 78.8335 36.2616 78.7171C36.2383 78.6007 36.2503 78.4801 36.2958 78.3704C36.3413 78.2608 36.4184 78.1671 36.5174 78.1012C36.6163 78.0352 36.7326 78 36.8516 78C37.0111 78 37.1641 78.0633 37.2769 78.1758C37.3897 78.2883 37.4531 78.4409 37.4531 78.6Z" fill="#FFFF00"/>
<path d="M26.625 70.1999C26.625 70.5559 26.7308 70.9039 26.9291 71.1999C27.1274 71.4959 27.4093 71.7266 27.7391 71.8629C28.0688 71.9991 28.4317 72.0348 28.7818 71.9653C29.1318 71.8959 29.4534 71.7244 29.7058 71.4727C29.9582 71.221 30.1301 70.9002 30.1997 70.5511C30.2693 70.2019 30.2336 69.84 30.097 69.5111C29.9604 69.1822 29.7291 68.901 29.4323 68.7033C29.1355 68.5055 28.7866 68.3999 28.4297 68.3999C27.9511 68.3999 27.492 68.5895 27.1536 68.9271C26.8151 69.2647 26.625 69.7225 26.625 70.1999ZM29.0312 70.1999C29.0312 70.3186 28.996 70.4346 28.9299 70.5332C28.8638 70.6319 28.7698 70.7088 28.6599 70.7542C28.55 70.7996 28.429 70.8115 28.3123 70.7884C28.1956 70.7652 28.0884 70.7081 28.0043 70.6242C27.9202 70.5403 27.8629 70.4333 27.8397 70.317C27.8165 70.2006 27.8284 70.0799 27.8739 69.9703C27.9194 69.8607 27.9966 69.767 28.0955 69.701C28.1944 69.6351 28.3107 69.5999 28.4297 69.5999C28.5892 69.5999 28.7422 69.6631 28.8551 69.7756C28.9679 69.8882 29.0312 70.0408 29.0312 70.1999Z" fill="#FFFF00"/>
<path d="M79.5625 81.5999C79.8816 81.5999 80.1876 81.4735 80.4132 81.2484C80.6389 81.0234 80.7656 80.7182 80.7656 80.3999C80.7656 78.824 80.4544 77.2636 79.8498 75.8077C79.2452 74.3518 78.359 73.0289 77.2418 71.9146C76.1245 70.8003 74.7982 69.9164 73.3385 69.3133C71.8788 68.7103 70.3143 68.3999 68.7344 68.3999C68.4153 68.3999 68.1093 68.5263 67.8836 68.7514C67.658 68.9764 67.5312 69.2816 67.5312 69.5999C67.5312 69.9182 67.658 70.2234 67.8836 70.4484C68.1093 70.6735 68.4153 70.7999 68.7344 70.7999C71.2871 70.7999 73.7352 71.8113 75.5403 73.6117C77.3453 75.412 78.3594 77.8538 78.3594 80.3999C78.3594 80.7182 78.4861 81.0234 78.7118 81.2484C78.9374 81.4735 79.2434 81.5999 79.5625 81.5999Z" fill="#FFFF00"/>
<path d="M80.7656 57.6001C80.4465 57.6001 80.1405 57.7265 79.9149 57.9516C79.6893 58.1766 79.5625 58.4818 79.5625 58.8001C79.5625 62.1121 75.7847 64.8001 71.1406 64.8001C70.8215 64.8001 70.5155 64.9265 70.2899 65.1516C70.0643 65.3766 69.9375 65.6818 69.9375 66.0001C69.9375 66.3184 70.0643 66.6236 70.2899 66.8486C70.5155 67.0737 70.8215 67.2001 71.1406 67.2001C77.1562 67.2001 81.9688 63.4321 81.9688 58.8001C81.9688 58.4818 81.842 58.1766 81.6164 57.9516C81.3907 57.7265 81.0847 57.6001 80.7656 57.6001Z" fill="#FFFF00"/>
<path d="M66.9176 83.8321C67.1033 83.942 67.3153 84 67.5312 84.0001C67.74 84 67.9452 83.9458 68.1266 83.8427C68.308 83.7396 68.4594 83.5912 68.5659 83.4121C69.1713 82.55 69.5772 81.5645 69.754 80.5268C69.9309 79.4892 69.8744 78.4253 69.5885 77.4121C69.2224 76.4994 68.6789 75.6679 67.9892 74.9656C67.2996 74.2633 66.4774 73.7041 65.5701 73.3201C65.2748 73.2058 64.9462 73.2122 64.6556 73.338C64.3651 73.4638 64.136 73.6989 64.0181 73.9921C63.8983 74.285 63.8994 74.6133 64.0211 74.9054C64.1428 75.1976 64.3752 75.43 64.6678 75.5521C65.8606 76.0554 66.81 77.0023 67.3146 78.1921C67.4864 78.8826 67.5021 79.6026 67.3606 80.2999C67.2191 80.9973 66.9239 81.6545 66.4965 82.2241C66.3451 82.4945 66.3043 82.8129 66.3828 83.1126C66.4613 83.4123 66.6529 83.6701 66.9176 83.8321Z" fill="#FFFF00"/>
<path d="M80.1641 86.4C80.521 86.4 80.8699 86.2945 81.1667 86.0967C81.4635 85.8989 81.6948 85.6178 81.8314 85.2889C81.968 84.96 82.0037 84.598 81.9341 84.2489C81.8644 83.8997 81.6926 83.579 81.4402 83.3273C81.1878 83.0755 80.8662 82.9041 80.5161 82.8346C80.1661 82.7652 79.8032 82.8008 79.4734 82.9371C79.1437 83.0733 78.8618 83.304 78.6635 83.6C78.4652 83.896 78.3594 84.244 78.3594 84.6C78.3594 85.0774 78.5495 85.5353 78.888 85.8728C79.2264 86.2104 79.6854 86.4 80.1641 86.4ZM80.1641 84C80.283 84 80.3993 84.0352 80.4983 84.1012C80.5972 84.1671 80.6743 84.2608 80.7198 84.3704C80.7654 84.4801 80.7773 84.6007 80.7541 84.7171C80.7309 84.8335 80.6736 84.9404 80.5894 85.0243C80.5053 85.1082 80.3981 85.1654 80.2814 85.1885C80.1647 85.2117 80.0438 85.1998 79.9339 85.1544C79.8239 85.109 79.73 85.0321 79.6639 84.9334C79.5978 84.8347 79.5625 84.7187 79.5625 84.6C79.5625 84.4409 79.6259 84.2883 79.7387 84.1758C79.8515 84.0633 80.0045 84 80.1641 84Z" fill="#FFFF00"/>
<path d="M74.1484 76.8C73.7915 76.8 73.4426 76.9056 73.1458 77.1034C72.849 77.3012 72.6177 77.5823 72.4811 77.9112C72.3445 78.2401 72.3088 78.602 72.3784 78.9512C72.4481 79.3004 72.6199 79.6211 72.8723 79.8728C73.1247 80.1246 73.4463 80.296 73.7964 80.3655C74.1464 80.4349 74.5093 80.3993 74.8391 80.263C75.1688 80.1268 75.4507 79.8961 75.649 79.6001C75.8473 79.3041 75.9531 78.9561 75.9531 78.6C75.9531 78.1227 75.763 77.6648 75.4245 77.3273C75.0861 76.9897 74.6271 76.8 74.1484 76.8ZM74.1484 79.2C74.0295 79.2 73.9132 79.1649 73.8142 79.0989C73.7153 79.033 73.6382 78.9393 73.5927 78.8297C73.5471 78.72 73.5352 78.5994 73.5584 78.483C73.5816 78.3666 73.6389 78.2597 73.7231 78.1758C73.8072 78.0919 73.9144 78.0347 74.0311 78.0116C74.1478 77.9884 74.2687 78.0003 74.3786 78.0457C74.4886 78.0911 74.5825 78.168 74.6486 78.2667C74.7147 78.3654 74.75 78.4814 74.75 78.6C74.75 78.7592 74.6866 78.9118 74.5738 79.0243C74.461 79.1368 74.308 79.2 74.1484 79.2Z" fill="#FFFF00"/>
<path d="M84.375 70.1999C84.375 69.8439 84.2692 69.4959 84.0709 69.1999C83.8726 68.9039 83.5907 68.6732 83.2609 68.5369C82.9312 68.4007 82.5683 68.365 82.2182 68.4345C81.8682 68.5039 81.5466 68.6754 81.2942 68.9271C81.0418 69.1788 80.8699 69.4996 80.8003 69.8487C80.7307 70.1979 80.7664 70.5598 80.903 70.8887C81.0396 71.2176 81.2709 71.4988 81.5677 71.6965C81.8645 71.8943 82.2134 71.9999 82.5703 71.9999C83.0489 71.9999 83.508 71.8103 83.8464 71.4727C84.1849 71.1351 84.375 70.6773 84.375 70.1999ZM81.9687 70.1999C81.9687 70.0812 82.004 69.9652 82.0701 69.8666C82.1362 69.7679 82.2302 69.691 82.3401 69.6456C82.45 69.6002 82.571 69.5883 82.6877 69.6114C82.8044 69.6346 82.9116 69.6917 82.9957 69.7756C83.0798 69.8595 83.1371 69.9665 83.1603 70.0828C83.1835 70.1992 83.1716 70.3199 83.1261 70.4295C83.0806 70.5391 83.0035 70.6329 82.9045 70.6988C82.8056 70.7647 82.6893 70.7999 82.5703 70.7999C82.4108 70.7999 82.2578 70.7367 82.1449 70.6242C82.0321 70.5116 81.9687 70.359 81.9687 70.1999Z" fill="#FFFF00"/>
<path d="M66.3281 44.4V53.9999C66.3281 54.3182 66.4549 54.6234 66.6805 54.8485C66.9061 55.0735 67.2122 55.1999 67.5312 55.1999C67.8503 55.1999 68.1564 55.0735 68.382 54.8485C68.6076 54.6234 68.7344 54.3182 68.7344 53.9999V44.4C68.7344 44.0817 68.6076 43.7765 68.382 43.5514C68.1564 43.3264 67.8503 43.2 67.5312 43.2C67.2122 43.2 66.9061 43.3264 66.6805 43.5514C66.4549 43.7765 66.3281 44.0817 66.3281 44.4Z" fill="#FFFF00"/>
<path d="M73.5469 58.8V49.2C73.5469 48.8817 73.4201 48.5765 73.1945 48.3515C72.9689 48.1264 72.6628 48 72.3438 48C72.0247 48 71.7186 48.1264 71.493 48.3515C71.2674 48.5765 71.1406 48.8817 71.1406 49.2V58.8C71.1406 59.1183 71.2674 59.4235 71.493 59.6485C71.7186 59.8736 72.0247 60 72.3438 60C72.6628 60 72.9689 59.8736 73.1945 59.6485C73.4201 59.4235 73.5469 59.1183 73.5469 58.8Z" fill="#FFFF00"/>
</svg>
