<svg width="112" height="112" viewBox="0 0 112 112" fill="none" xmlns="http://www.w3.org/2000/svg">
<rect width="112" height="112" rx="5" fill="#999C48" fill-opacity="0.2"/>
<path d="M70.2266 71.418C70.2266 72.1192 69.6582 72.6875 68.957 72.6875C68.2558 72.6875 67.6875 72.1192 67.6875 71.418C67.6875 70.7168 68.2558 70.1484 68.957 70.1484C69.6582 70.1484 70.2266 70.7168 70.2266 71.418Z" fill="#FFFF00"/>
<path d="M86.7305 90.4609H84.1914C83.4912 90.4609 82.9219 89.8916 82.9219 89.1914C82.9219 87.9769 82.9219 51.0886 82.9219 49.8359H84.1914C84.6779 49.8359 85.1217 49.5577 85.334 49.1198C85.5462 48.6819 85.4892 48.1617 85.1877 47.7799L69.9533 28.483C69.447 27.8413 68.4705 27.8373 67.9607 28.483L52.7264 47.7799C52.4249 48.1617 52.3683 48.6819 52.5806 49.1198C52.7923 49.5577 53.2362 49.8359 53.7227 49.8359H54.9922V62.7073C45.1875 62.8665 42.6118 66.9944 39.6457 71.7403L33.0804 82.2467C32.8463 82.6206 32.4441 82.8437 32.0038 82.8437H28.332C27.6308 82.8437 27.0625 83.4121 27.0625 84.1133V91.7305C27.0625 92.4317 27.6308 93 28.332 93H31.728C34.8111 93 37.6284 91.4389 39.2639 88.8234L47.0298 76.3969C49.2575 72.8318 52.9203 72.5962 54.9922 72.6443V89.1914C54.9922 89.8916 54.4229 90.4609 53.7227 90.4609H51.1836C50.4824 90.4609 49.9141 91.0292 49.9141 91.7305C49.9141 92.4317 50.4824 93 51.1836 93H53.7227C55.8228 93 57.5312 91.2916 57.5312 89.1914V72.6875H60.0703V91.7305C60.0703 92.4317 60.6386 93 61.3398 93C62.0411 93 62.6094 92.4317 62.6094 91.7305V87.9219H75.3047V91.7305C75.3047 92.4317 75.873 93 76.5742 93C77.2754 93 77.8438 92.4317 77.8438 91.7305V72.6875H80.3828V89.1914C80.3828 91.2916 82.0912 93 84.1914 93H86.7305C87.4317 93 88 92.4317 88 91.7305C88 91.0292 87.4317 90.4609 86.7305 90.4609ZM68.957 31.3186L81.5715 47.2969H56.3426L68.957 31.3186ZM44.8766 75.0515L37.1111 87.477C35.9423 89.3456 33.9304 90.4609 31.728 90.4609H29.6016V85.3828H32.0038C33.3244 85.3828 34.5319 84.7138 35.2331 83.5926L41.799 73.0862C44.6738 68.4866 46.6202 65.3788 54.9922 65.2454V70.1043C52.525 70.0517 47.8045 70.3656 44.8766 75.0515ZM62.6094 85.3828V80.3047H75.3047V85.3828H62.6094ZM75.3047 77.7656H62.6094V72.6875H63.2441C63.9454 72.6875 64.5137 72.1192 64.5137 71.418C64.5137 70.7167 63.9454 70.1484 63.2441 70.1484H57.5312V49.8359H80.3828V70.1484H74.6699C73.9687 70.1484 73.4004 70.7167 73.4004 71.418C73.4004 72.1192 73.9687 72.6875 74.6699 72.6875H75.3047V77.7656Z" fill="#FFFF00"/>
<path d="M76.5742 59.9922C76.5742 55.7918 73.1574 52.375 68.957 52.375C64.7567 52.375 61.3398 55.7918 61.3398 59.9922C61.3398 64.1926 64.7567 67.6094 68.957 67.6094C73.1574 67.6094 76.5742 64.1926 76.5742 59.9922ZM63.8789 59.9922C63.8789 57.1923 66.1571 54.9141 68.957 54.9141C71.7569 54.9141 74.0352 57.1923 74.0352 59.9922C74.0352 62.7921 71.7569 65.0703 68.957 65.0703C66.1571 65.0703 63.8789 62.7921 63.8789 59.9922Z" fill="#FFFF00"/>
<path d="M23 39.4258C23 41.526 24.7084 43.2344 26.8086 43.2344H47.1211C49.2213 43.2344 50.9297 41.526 50.9297 39.4258C50.9297 37.3256 49.2213 35.6172 47.1211 35.6172H45.7241C45.1345 32.7235 42.5691 30.5391 39.5039 30.5391C38.7263 30.5391 37.9646 30.6799 37.25 30.9517C36.1039 29.1436 34.091 28 31.8867 28C28.3866 28 25.5391 30.8475 25.5391 34.3477C25.5391 34.8322 25.5976 35.3127 25.7062 35.7803C24.1421 36.2544 23 37.7089 23 39.4258ZM31.8867 30.5391C33.2108 30.5391 34.4183 31.2264 35.1057 32.3119C34.1758 33.2056 33.5406 34.3576 33.2842 35.6172H28.2963C28.1535 35.2115 28.0781 34.7821 28.0781 34.3477C28.0781 32.2475 29.7865 30.5391 31.8867 30.5391ZM26.8086 38.1562H34.4258C35.127 38.1562 35.6953 37.5879 35.6953 36.8867C35.6953 34.8029 37.3809 33.0781 39.5039 33.0781C41.6041 33.0781 43.3125 34.7865 43.3125 36.8867C43.3125 37.5879 43.8808 38.1562 44.582 38.1562H47.1211C47.8213 38.1562 48.3906 38.7256 48.3906 39.4258C48.3906 40.126 47.8213 40.6953 47.1211 40.6953H26.8086C26.1084 40.6953 25.5391 40.126 25.5391 39.4258C25.5391 38.7256 26.1084 38.1562 26.8086 38.1562Z" fill="#FFFF00"/>
</svg>
