<svg width="120" height="120" viewBox="0 0 120 120" fill="none" xmlns="http://www.w3.org/2000/svg">
<g filter="url(#filter0_d)">
<rect x="4" width="112" height="112" rx="5" fill="#999C48" fill-opacity="0.2"/>
<path d="M82.8441 64.3751C84.9033 64.3747 86.9006 63.6706 88.5049 62.3795C90.1091 61.0883 91.2239 59.2877 91.6645 57.2761C92.1051 55.2646 91.845 53.1628 90.9273 51.3193C90.0097 49.4758 88.4896 48.0013 86.619 47.1402C87.2836 45.9065 87.6295 44.5264 87.6253 43.1251C87.6195 41.579 87.1947 40.0634 86.396 38.7396C85.5973 37.4157 84.4548 36.3331 83.0898 35.607C83.4056 34.5002 83.4603 33.3352 83.2495 32.2037C83.0387 31.0721 82.5681 30.005 81.8749 29.0862C81.1816 28.1674 80.2846 27.422 79.2543 26.9088C78.2241 26.3956 77.0888 26.1284 75.9378 26.1284C74.7868 26.1284 73.6515 26.3956 72.6213 26.9088C71.5911 27.422 70.694 28.1674 70.0008 29.0862C69.3075 30.005 68.837 31.0721 68.6261 32.2037C68.4153 33.3352 68.47 34.5002 68.7859 35.607C67.4209 36.3331 66.2783 37.4157 65.4797 38.7396C64.681 40.0634 64.2562 41.579 64.2503 43.1251C64.2462 44.5264 64.5921 45.9065 65.2566 47.1402C64.0841 47.6784 63.0405 48.4617 62.1962 49.4373C61.3519 50.4128 60.7264 51.558 60.362 52.7956C59.9976 54.0333 59.9026 55.3347 60.0835 56.6121C60.2644 57.8896 60.7169 59.1134 61.4107 60.2012C62.1044 61.289 63.0232 62.2155 64.1052 62.9183C65.1872 63.6211 66.4072 64.0838 67.6831 64.2753C68.959 64.4669 70.2611 64.3827 71.5018 64.0286C72.7424 63.6745 73.8928 63.0586 74.8753 62.2225V75.0001C74.0327 75.0009 73.2098 75.2555 72.5139 75.7306C72.2235 74.8973 71.6812 74.1749 70.9621 73.6633C70.2431 73.1517 69.3828 72.8763 68.5003 72.8751C67.9873 72.8751 67.4786 72.9694 66.9995 73.1532C66.6533 72.4356 66.1124 71.8298 65.4384 71.4049C64.7644 70.98 63.9846 70.7531 63.1878 70.7501C62.4405 70.7509 61.707 70.9511 61.0628 71.3298C60.4187 70.9511 59.6851 70.7509 58.9378 70.7501C58.1411 70.753 57.3612 70.9798 56.6872 71.4048C56.0132 71.8297 55.4722 72.4356 55.1261 73.1532C54.6471 72.9693 54.1384 72.8751 53.6253 72.8751C52.4985 72.8764 51.4183 73.3245 50.6215 74.1213C49.8248 74.9181 49.3766 75.9983 49.3753 77.1251C49.3753 77.1708 49.3769 77.2166 49.3785 77.2624C49.229 77.3012 49.0818 77.3482 48.9374 77.4031C48.5912 76.6855 48.0501 76.0796 47.3761 75.6548C46.702 75.2299 45.9221 75.003 45.1253 75.0001V62.2225C46.108 63.0576 47.2581 63.6726 48.4983 64.0259C49.7386 64.3793 51.0401 64.4628 52.3154 64.271C53.5906 64.0791 54.8099 63.6163 55.8913 62.9137C56.9727 62.2111 57.891 61.2849 58.5844 60.1976C59.2778 59.1103 59.7302 57.8871 59.9113 56.6103C60.0923 55.3335 59.9977 54.0327 59.6338 52.7955C59.2699 51.5583 58.6452 50.4134 57.8018 49.4379C56.9583 48.4624 55.9157 47.6789 54.744 47.1402C55.4086 45.9065 55.7545 44.5264 55.7503 43.1251C55.7445 41.579 55.3197 40.0634 54.521 38.7396C53.7223 37.4157 52.5798 36.3331 51.2148 35.607C51.5307 34.5002 51.5853 33.3352 51.3745 32.2037C51.1637 31.0721 50.6931 30.005 49.9999 29.0862C49.3066 28.1674 48.4096 27.422 47.3793 26.9088C46.3491 26.3956 45.2138 26.1284 44.0628 26.1284C42.9118 26.1284 41.7765 26.3956 40.7463 26.9088C39.7161 27.422 38.8191 28.1674 38.1258 29.0862C37.4325 30.005 36.962 31.0721 36.7512 32.2037C36.5403 33.3352 36.595 34.5002 36.9109 35.607C35.5459 36.3331 34.4033 37.4157 33.6047 38.7396C32.806 40.0634 32.3812 41.579 32.3753 43.1251C32.3712 44.5264 32.7171 45.9065 33.3816 47.1402C32.2091 47.6784 31.1655 48.4617 30.3212 49.4373C29.4769 50.4128 28.8514 51.558 28.487 52.7956C28.1226 54.0333 28.0276 55.3347 28.2085 56.6121C28.3894 57.8896 28.8419 59.1134 29.5357 60.2012C30.2294 61.289 31.1482 62.2155 32.2302 62.9183C33.3122 63.6211 34.5322 64.0838 35.8081 64.2753C37.084 64.4669 38.3861 64.3827 39.6268 64.0286C40.8674 63.6745 42.0178 63.0586 43.0003 62.2225V75.5798C42.3562 75.2011 41.6226 75.0009 40.8753 75.0001C40.0786 75.0031 39.2988 75.23 38.6248 75.6549C37.9508 76.0797 37.4099 76.6855 37.0636 77.4031C36.5846 77.2193 36.0759 77.1251 35.5628 77.1251C34.436 77.1264 33.3558 77.5745 32.559 78.3713C31.7623 79.1681 31.3141 80.2483 31.3128 81.3751C31.3128 81.4194 31.3136 81.464 31.3152 81.509C30.3129 81.7667 29.439 82.3813 28.8576 83.2375C28.2762 84.0937 28.0271 85.1326 28.1572 86.1594C28.2873 87.1861 28.7876 88.1301 29.5642 88.8142C30.3408 89.4983 31.3404 89.8755 32.3753 89.8751H87.6253C88.6603 89.8755 89.6598 89.4983 90.4364 88.8142C91.213 88.1301 91.7133 87.1861 91.8434 86.1594C91.9735 85.1326 91.7245 84.0937 91.1431 83.2375C90.5617 82.3813 89.6878 81.7667 88.6854 81.509C88.687 81.464 88.6878 81.4194 88.6878 81.3751C88.6866 80.2483 88.2384 79.1681 87.4416 78.3713C86.6449 77.5745 85.5646 77.1264 84.4378 77.1251C83.9248 77.1251 83.4161 77.2193 82.937 77.4031C82.5908 76.6855 82.0498 76.0797 81.3759 75.6549C80.7019 75.23 79.922 75.0031 79.1253 75.0001C78.378 75.0009 77.6445 75.2011 77.0003 75.5798V62.2225C78.6322 63.6088 80.7028 64.3716 82.8441 64.3751ZM37.1566 62.2501C35.4891 62.2498 33.8781 61.6461 32.621 60.5507C31.3638 59.4553 30.5454 57.942 30.3169 56.2903C30.0884 54.6385 30.4652 52.9599 31.3778 51.5643C32.2903 50.1687 33.6769 49.1504 35.2817 48.6974C35.4492 48.6502 35.6025 48.5626 35.7282 48.4424C35.854 48.3221 35.9482 48.1727 36.0027 48.0075C36.0572 47.8422 36.0703 47.6661 36.0408 47.4946C36.0114 47.3231 35.9402 47.1615 35.8336 47.0239C34.9655 45.9101 34.4961 44.5373 34.5003 43.1251C34.505 41.8314 34.9011 40.5694 35.6365 39.505C36.3719 38.4406 37.4123 37.6238 38.6207 37.1618C38.7562 37.1106 38.8798 37.0321 38.9839 36.9313C39.088 36.8305 39.1704 36.7095 39.2259 36.5757C39.2815 36.4419 39.3092 36.2982 39.3072 36.1533C39.3052 36.0084 39.2735 35.8655 39.2142 35.7333C38.852 34.9243 38.6979 34.0376 38.766 33.1538C38.8342 32.2701 39.1223 31.4174 39.6043 30.6735C40.0863 29.9296 40.7467 29.3181 41.5254 28.8948C42.3042 28.4714 43.1765 28.2496 44.0628 28.2496C44.9492 28.2496 45.8215 28.4714 46.6002 28.8948C47.379 29.3181 48.0394 29.9296 48.5214 30.6735C49.0033 31.4174 49.2915 32.2701 49.3596 33.1538C49.4277 34.0376 49.2737 34.9243 48.9114 35.7333C48.8521 35.8655 48.8205 36.0084 48.8185 36.1533C48.8165 36.2982 48.8441 36.4419 48.8997 36.5757C48.9553 36.7095 49.0377 36.8305 49.1418 36.9313C49.2458 37.0321 49.3694 37.1106 49.505 37.1618C50.7134 37.6238 51.7537 38.4406 52.4892 39.505C53.2246 40.5694 53.6207 41.8314 53.6253 43.1251C53.6296 44.5373 53.1601 45.9101 52.292 47.0239C52.1855 47.1615 52.1143 47.3231 52.0848 47.4946C52.0553 47.6661 52.0684 47.8422 52.1229 48.0075C52.1774 48.1727 52.2717 48.3221 52.3974 48.4424C52.5232 48.5626 52.6765 48.6502 52.844 48.6974C53.9231 49.0012 54.912 49.5632 55.7253 50.3347C56.5386 51.1063 57.1518 52.0642 57.5121 53.1258C57.8723 54.1874 57.9687 55.3207 57.793 56.4279C57.6172 57.5351 57.1746 58.5828 56.5033 59.4806C55.832 60.3785 54.9522 61.0994 53.94 61.5812C52.9277 62.0629 51.8134 62.291 50.6933 62.2457C49.5732 62.2005 48.4809 61.8832 47.5108 61.3214C46.5407 60.7595 45.722 59.97 45.1253 59.0209V48.8777L49.0641 44.9389C49.2634 44.7397 49.3754 44.4694 49.3754 44.1876C49.3754 43.9058 49.2634 43.6355 49.0641 43.4363C48.8649 43.237 48.5946 43.1251 48.3128 43.1251C48.031 43.1251 47.7608 43.237 47.5615 43.4363L45.1253 45.8725V42.0626C45.1253 41.7808 45.0134 41.5106 44.8141 41.3113C44.6149 41.112 44.3446 41.0001 44.0628 41.0001C43.781 41.0001 43.5108 41.112 43.3115 41.3113C43.1123 41.5106 43.0003 41.7808 43.0003 42.0626V53.31L40.5641 50.8738C40.3649 50.6745 40.0946 50.5626 39.8128 50.5626C39.531 50.5626 39.2608 50.6745 39.0615 50.8738C38.8622 51.073 38.7503 51.3433 38.7503 51.6251C38.7503 51.9069 38.8622 52.1772 39.0615 52.3764L43.0003 56.3152V59.0209C42.3769 60.0077 41.5145 60.821 40.4929 61.3855C39.4713 61.95 38.3237 62.2474 37.1566 62.2501ZM53.6253 75.0001C54.1558 75.0029 54.6658 75.2049 55.0543 75.566C55.2017 75.7012 55.3843 75.792 55.5811 75.8279C55.7778 75.8639 55.9807 75.8437 56.1665 75.7694C56.3522 75.6952 56.5132 75.5701 56.631 75.4084C56.7488 75.2468 56.8185 75.0551 56.8322 74.8556C56.8685 74.3207 57.1057 73.8193 57.4962 73.452C57.8867 73.0846 58.4017 72.8786 58.9378 72.8751C59.4619 72.8765 59.9663 73.0742 60.3518 73.4292C60.5469 73.605 60.8002 73.7022 61.0628 73.7022C61.3255 73.7022 61.5788 73.605 61.7739 73.4292C62.1593 73.0742 62.6638 72.8765 63.1878 72.8751C63.724 72.8786 64.239 73.0847 64.6295 73.452C65.02 73.8194 65.2572 74.3208 65.2934 74.8557C65.3071 75.0553 65.3769 75.2469 65.4947 75.4086C65.6125 75.5703 65.7735 75.6954 65.9593 75.7696C66.1451 75.8438 66.348 75.8641 66.5447 75.828C66.7415 75.792 66.9241 75.7012 67.0715 75.566C67.3736 75.2851 67.7513 75.0987 68.1581 75.0297C68.5648 74.9608 68.9828 75.0124 69.3606 75.1781C69.7384 75.3439 70.0594 75.6165 70.2841 75.9625C70.5089 76.3084 70.6275 76.7126 70.6253 77.1251C70.6253 77.1703 70.6221 77.2158 70.6187 77.2616C70.274 77.1713 69.9192 77.1254 69.5628 77.1251C68.436 77.1264 67.3558 77.5745 66.559 78.3713C65.7623 79.1681 65.3141 80.2483 65.3128 81.3751C65.3128 81.4194 65.3136 81.464 65.3152 81.509C64.6803 81.6721 64.0918 81.98 63.5957 82.4086C63.0996 82.8371 62.7095 83.3747 62.4559 83.9792C62.2024 84.5837 62.0922 85.2388 62.134 85.893C62.1758 86.5472 62.3686 87.1828 62.6971 87.7501H57.3042C57.6328 87.1828 57.8255 86.5472 57.8673 85.893C57.9092 85.2388 57.799 84.5837 57.5454 83.9792C57.2918 83.3747 56.9017 82.8371 56.4056 82.4086C55.9096 81.98 55.321 81.6721 54.6861 81.509C54.6873 81.464 54.6878 81.4194 54.6878 81.3751C54.6866 80.4343 54.3739 79.5205 53.7984 78.7763C53.2229 78.032 52.4172 77.4994 51.507 77.2615C51.5035 77.2158 51.5003 77.1703 51.5003 77.1251C51.501 76.5617 51.7251 76.0216 52.1235 75.6232C52.5218 75.2249 53.062 75.0008 53.6253 75.0001ZM32.3753 87.7501C31.8117 87.7543 31.2696 87.5345 30.8681 87.139C30.4666 86.7434 30.2386 86.2046 30.2344 85.641C30.2302 85.0775 30.45 84.5353 30.8455 84.1338C31.241 83.7323 31.7799 83.5043 32.3435 83.5001H32.346C32.4 83.5077 32.454 83.5142 32.5091 83.5178C32.6852 83.529 32.8614 83.4963 33.0217 83.4224C33.182 83.3485 33.3214 83.2358 33.4272 83.0946C33.5331 82.9533 33.602 82.7879 33.6279 82.6133C33.6538 82.4387 33.6358 82.2604 33.5756 82.0945C33.4876 81.8647 33.441 81.6212 33.4378 81.3751C33.4357 80.9626 33.5543 80.5584 33.779 80.2125C34.0038 79.8665 34.3248 79.5939 34.7026 79.4281C35.0804 79.2624 35.4984 79.2108 35.9051 79.2797C36.3118 79.3487 36.6895 79.5351 36.9916 79.816C37.1391 79.9512 37.3217 80.042 37.5184 80.078C37.7152 80.1141 37.9181 80.0938 38.1039 80.0196C38.2896 79.9454 38.4507 79.8203 38.5685 79.6586C38.6862 79.4969 38.756 79.3053 38.7697 79.1057C38.8059 78.5708 39.0431 78.0694 39.4337 77.702C39.8242 77.3347 40.3392 77.1286 40.8753 77.1251C41.3994 77.1265 41.9038 77.3242 42.2893 77.6792C42.4844 77.855 42.7377 77.9522 43.0003 77.9522C43.263 77.9522 43.5163 77.855 43.7114 77.6792C44.0968 77.3242 44.6013 77.1265 45.1253 77.1251C45.6615 77.1286 46.1765 77.3347 46.567 77.702C46.9575 78.0694 47.1947 78.5708 47.2309 79.1057C47.2446 79.3053 47.3144 79.4969 47.4322 79.6586C47.55 79.8203 47.711 79.9454 47.8968 80.0196C48.0826 80.0938 48.2855 80.1141 48.4822 80.078C48.679 80.042 48.8616 79.9512 49.009 79.816C49.3915 79.4609 49.8918 79.2598 50.4137 79.2513C50.4659 79.2585 50.518 79.2646 50.5714 79.2683C50.615 79.271 50.6587 79.271 50.7023 79.2683C51.2156 79.3331 51.6877 79.5827 52.0302 79.9706C52.3726 80.3584 52.562 80.8577 52.5628 81.3751C52.5597 81.6213 52.5131 81.8651 52.4251 82.0951C52.3648 82.261 52.3468 82.4393 52.3727 82.6139C52.3986 82.7885 52.4676 82.9539 52.5734 83.0951C52.6793 83.2364 52.8187 83.349 52.979 83.4229C53.1393 83.4968 53.3154 83.5296 53.4916 83.5183C53.5467 83.5147 53.6006 83.5082 53.6547 83.5006H53.6572C54.2208 83.5049 54.7596 83.7328 55.1551 84.1343C55.5507 84.5358 55.7705 85.078 55.7663 85.6416C55.762 86.2052 55.5341 86.744 55.1326 87.1395C54.7311 87.535 54.1889 87.7549 53.6253 87.7506L32.3753 87.7501ZM77.7114 77.6792C78.0968 77.3242 78.6013 77.1265 79.1253 77.1251C79.6615 77.1286 80.1765 77.3347 80.567 77.702C80.9575 78.0694 81.1947 78.5708 81.2309 79.1057C81.2446 79.3053 81.3144 79.4969 81.4322 79.6586C81.55 79.8203 81.711 79.9454 81.8968 80.0196C82.0826 80.0938 82.2855 80.1141 82.4822 80.078C82.679 80.042 82.8616 79.9512 83.009 79.816C83.3111 79.5351 83.6888 79.3487 84.0956 79.2797C84.5023 79.2108 84.9203 79.2624 85.2981 79.4281C85.6759 79.5939 85.9969 79.8665 86.2216 80.2125C86.4464 80.5584 86.565 80.9626 86.5628 81.3751C86.5597 81.6213 86.5131 81.8651 86.4251 82.0951C86.3648 82.261 86.3468 82.4393 86.3727 82.6139C86.3986 82.7885 86.4676 82.9539 86.5734 83.0951C86.6793 83.2364 86.8187 83.349 86.979 83.4229C87.1393 83.4968 87.3154 83.5296 87.4916 83.5183C87.5467 83.5147 87.6006 83.5082 87.6547 83.5006H87.6572C88.2208 83.5049 88.7596 83.7328 89.1551 84.1343C89.5507 84.5358 89.7705 85.078 89.7663 85.6416C89.762 86.2052 89.5341 86.744 89.1326 87.1395C88.7311 87.535 88.1889 87.7549 87.6253 87.7506H66.3753C65.8117 87.7549 65.2696 87.535 64.8681 87.1395C64.4666 86.744 64.2386 86.2052 64.2344 85.6416C64.2302 85.078 64.45 84.5358 64.8455 84.1343C65.241 83.7328 65.7799 83.5049 66.3435 83.5006H66.346C66.4 83.5082 66.454 83.5147 66.5091 83.5183C66.6852 83.5296 66.8614 83.4968 67.0217 83.4229C67.182 83.349 67.3214 83.2364 67.4272 83.0951C67.5331 82.9539 67.602 82.7885 67.6279 82.6139C67.6538 82.4393 67.6358 82.261 67.5756 82.0951C67.4876 81.8651 67.4409 81.6213 67.4378 81.3751C67.4357 80.9626 67.5543 80.5584 67.779 80.2125C68.0037 79.8665 68.3248 79.5939 68.7026 79.4281C69.0804 79.2624 69.4984 79.2108 69.9051 79.2797C70.3118 79.3487 70.6895 79.5351 70.9916 79.816C71.1391 79.9512 71.3217 80.042 71.5184 80.078C71.7152 80.1141 71.9181 80.0938 72.1039 80.0196C72.2896 79.9454 72.4507 79.8203 72.5685 79.6586C72.6862 79.4969 72.756 79.3053 72.7697 79.1057C72.8059 78.5708 73.0431 78.0694 73.4337 77.702C73.8242 77.3347 74.3392 77.1286 74.8753 77.1251C75.3993 77.1265 75.9038 77.3242 76.2892 77.6792C76.4844 77.855 76.7377 77.9522 77.0003 77.9522C77.263 77.9522 77.5163 77.855 77.7114 77.6792ZM69.0316 62.2501C67.3641 62.2498 65.7531 61.6461 64.496 60.5507C63.2388 59.4553 62.4204 57.942 62.1919 56.2903C61.9634 54.6385 62.3402 52.9599 63.2528 51.5643C64.1653 50.1687 65.5519 49.1504 67.1567 48.6974C67.3242 48.6502 67.4775 48.5626 67.6032 48.4424C67.729 48.3221 67.8232 48.1727 67.8777 48.0075C67.9322 47.8422 67.9453 47.6661 67.9158 47.4946C67.8864 47.3231 67.8152 47.1615 67.7086 47.0239C66.8405 45.9101 66.371 44.5373 66.3753 43.1251C66.38 41.8314 66.7761 40.5694 67.5115 39.505C68.2469 38.4406 69.2873 37.6238 70.4957 37.1618C70.6312 37.1106 70.7548 37.0321 70.8589 36.9313C70.963 36.8305 71.0454 36.7095 71.1009 36.5757C71.1565 36.4419 71.1842 36.2982 71.1822 36.1533C71.1801 36.0084 71.1485 35.8655 71.0892 35.7333C70.727 34.9243 70.5729 34.0376 70.641 33.1538C70.7092 32.2701 70.9973 31.4174 71.4793 30.6735C71.9613 29.9296 72.6217 29.3181 73.4004 28.8948C74.1792 28.4714 75.0515 28.2496 75.9378 28.2496C76.8242 28.2496 77.6965 28.4714 78.4752 28.8948C79.254 29.3181 79.9144 29.9296 80.3964 30.6735C80.8783 31.4174 81.1665 32.2701 81.2346 33.1538C81.3027 34.0376 81.1487 34.9243 80.7864 35.7333C80.7271 35.8655 80.6955 36.0084 80.6935 36.1533C80.6915 36.2982 80.7191 36.4419 80.7747 36.5757C80.8303 36.7095 80.9127 36.8305 81.0168 36.9313C81.1208 37.0321 81.2444 37.1106 81.38 37.1618C82.5884 37.6238 83.6287 38.4406 84.3642 39.505C85.0996 40.5694 85.4957 41.8314 85.5003 43.1251C85.5046 44.5373 85.0351 45.9101 84.167 47.0239C84.0605 47.1615 83.9893 47.3231 83.9598 47.4946C83.9303 47.6661 83.9434 47.8422 83.9979 48.0075C84.0524 48.1727 84.1467 48.3221 84.2724 48.4424C84.3981 48.5626 84.5515 48.6502 84.719 48.6974C85.7981 49.0012 86.787 49.5632 87.6003 50.3347C88.4136 51.1063 89.0268 52.0642 89.3871 53.1258C89.7473 54.1874 89.8437 55.3207 89.668 56.4279C89.4922 57.5351 89.0496 58.5828 88.3783 59.4806C87.707 60.3785 86.8272 61.0994 85.815 61.5812C84.8027 62.0629 83.6884 62.291 82.5683 62.2457C81.4482 62.2005 80.3559 61.8832 79.3858 61.3214C78.4157 60.7595 77.597 59.97 77.0003 59.0209V48.8777L80.9392 44.9389C81.1384 44.7397 81.2504 44.4694 81.2504 44.1876C81.2504 43.9058 81.1384 43.6355 80.9392 43.4363C80.7399 43.237 80.4696 43.1251 80.1878 43.1251C79.906 43.1251 79.6358 43.237 79.4365 43.4363L77.0003 45.8725V42.0626C77.0003 41.7808 76.8884 41.5106 76.6891 41.3113C76.4899 41.112 76.2196 41.0001 75.9378 41.0001C75.656 41.0001 75.3858 41.112 75.1865 41.3113C74.9873 41.5106 74.8753 41.7808 74.8753 42.0626V53.31L72.4392 50.8738C72.2399 50.6745 71.9696 50.5626 71.6878 50.5626C71.406 50.5626 71.1358 50.6745 70.9365 50.8738C70.7372 51.073 70.6253 51.3433 70.6253 51.6251C70.6253 51.9069 70.7372 52.1772 70.9365 52.3764L74.8753 56.3152V59.0209C74.2519 60.0077 73.3895 60.821 72.3679 61.3855C71.3463 61.95 70.1987 62.2474 69.0316 62.2501Z" fill="#FFFF00"/>
</g>
<defs>
<filter id="filter0_d" x="0" y="0" width="120" height="120" filterUnits="userSpaceOnUse" color-interpolation-filters="sRGB">
<feFlood flood-opacity="0" result="BackgroundImageFix"/>
<feColorMatrix in="SourceAlpha" type="matrix" values="0 0 0 0 0 0 0 0 0 0 0 0 0 0 0 0 0 0 127 0"/>
<feOffset dy="4"/>
<feGaussianBlur stdDeviation="2"/>
<feColorMatrix type="matrix" values="0 0 0 0 0 0 0 0 0 0 0 0 0 0 0 0 0 0 0.25 0"/>
<feBlend mode="normal" in2="BackgroundImageFix" result="effect1_dropShadow"/>
<feBlend mode="normal" in="SourceGraphic" in2="effect1_dropShadow" result="shape"/>
</filter>
</defs>
</svg>
