<svg width="94" height="94" viewBox="0 0 94 94" fill="none" xmlns="http://www.w3.org/2000/svg">
<rect width="94" height="94" rx="5" fill="#FFFF00"/>
<path d="M67.6815 26C66.9533 26 66.3632 26.5902 66.3632 27.3184V34.4725H50.7362C50.008 34.4725 49.4178 35.063 49.4178 35.7909V44.2637C49.4178 44.9919 50.008 45.5821 50.7362 45.5821H59.209C59.9369 45.5821 60.5274 44.9919 60.5274 44.2637C60.5274 43.5356 59.9369 42.9454 59.209 42.9454H52.0545V37.1092H66.3632V59.8908H42.2636C41.5354 59.8908 40.9453 60.4809 40.9453 61.2091C40.9453 61.937 41.5354 62.5275 42.2636 62.5275H66.3632V68.3633H35.1091V54.0546H59.209C59.9369 54.0546 60.5274 53.4644 60.5274 52.7363C60.5274 52.0081 59.9369 51.4179 59.209 51.4179H35.1091V35.7909C35.1091 35.063 34.519 34.4725 33.7908 34.4725C33.0629 34.4725 32.4724 35.063 32.4724 35.7909V69.6816C32.4724 70.4098 33.0629 71 33.7908 71H67.6815C68.4097 71 68.9999 70.4098 68.9999 69.6816V27.3184C68.9999 26.5902 68.4097 26 67.6815 26Z" fill="#373810"/>
<path d="M40.9454 44.2637C40.9454 44.9919 41.5356 45.5821 42.2637 45.5821C42.9919 45.5821 43.5821 44.9919 43.5821 44.2637V28.6367H59.2091C59.937 28.6367 60.5275 28.0465 60.5275 27.3184C60.5275 26.5902 59.937 26 59.2091 26H25.3184C24.5902 26 24 26.5902 24 27.3184V69.6816C24 70.4098 24.5902 71 25.3184 71C26.0465 71 26.6367 70.4098 26.6367 69.6816V28.6367H40.9454V44.2637Z" fill="#373810"/>
</svg>
