<svg width="94" height="94" viewBox="0 0 94 94" fill="none" xmlns="http://www.w3.org/2000/svg">
<rect width="94" height="94" rx="5" fill="#FFFF00"/>
<path d="M71.9395 28.5465C71.8015 28.1454 71.4508 27.8607 71.0365 27.8138L66.3774 27.2865C66.7408 26.8531 66.7233 26.1996 66.3203 25.7888C65.9172 25.378 65.2761 25.3594 64.8508 25.7313L64.3334 20.9818C64.2874 20.5605 64.0081 20.2022 63.6145 20.0623C63.2226 19.9216 62.7845 20.0235 62.4894 20.3235L55.4531 27.4959C54.6962 27.0641 53.9154 26.6726 53.1108 26.3257C50.1717 25.0593 47.0496 24.4163 43.8329 24.4163C40.6154 24.4163 37.4948 25.0593 34.5558 26.3257C31.7177 27.5493 29.1683 29.301 26.98 31.5315C24.7917 33.7619 23.073 36.3595 21.8733 39.2523C20.63 42.2478 20 45.4293 20 48.7078C20 51.9881 20.63 55.1695 21.8734 58.165C23.0731 61.0569 24.7917 63.6545 26.9801 65.885C29.1684 68.1153 31.7178 69.8671 34.5559 71.0915C37.4949 72.358 40.6155 73 43.833 73C47.0497 73 50.1718 72.3581 53.1109 71.0915C55.9483 69.8671 58.4969 68.1153 60.6852 65.885C62.8751 63.6545 64.5922 61.0568 65.7935 58.165C67.036 55.1694 67.6661 51.988 67.6661 48.7078C67.6661 45.4293 67.0361 42.2478 65.7935 39.2523C65.4524 38.4315 65.0682 37.6356 64.6461 36.8649L71.6825 29.6924C71.9776 29.3924 72.076 28.9469 71.9395 28.5465ZM62.4292 23.509L62.8275 27.1645C61.777 27.6076 59.9728 28.8418 56.3831 32.0054L56.6354 29.4134L62.4292 23.509ZM49.9291 46.4119C50.1893 47.1275 50.3337 47.9007 50.3337 48.7078C50.3337 52.3617 47.4171 55.3328 43.833 55.3328C40.249 55.3328 37.3331 52.3617 37.3331 48.7078C37.3331 45.0548 40.249 42.0828 43.833 42.0828C44.6248 42.0828 45.3834 42.2292 46.0857 42.4945V44.8503L43.0665 47.9274C42.6436 48.3584 42.6436 49.0588 43.0665 49.4891C43.2784 49.7042 43.5553 49.8126 43.833 49.8126C44.11 49.8126 44.3877 49.7042 44.5987 49.4891L47.6179 46.4119H49.9291ZM47.2338 40.5843C46.1887 40.1281 45.0398 39.875 43.833 39.875C39.0541 39.875 35.1662 43.8378 35.1662 48.7078C35.1662 53.5795 39.0541 57.5423 43.833 57.5423C48.612 57.5423 52.4999 53.5795 52.4999 48.7078C52.4999 47.4785 52.2523 46.3068 51.8033 45.2417C52.6523 44.3432 54.0981 42.8018 55.7198 41.0178C57.11 43.2426 57.9161 45.8814 57.9161 48.7079C57.9161 56.6237 51.5986 63.0627 43.8331 63.0627C36.0676 63.0627 29.7501 56.6237 29.7501 48.7079C29.7501 40.7931 36.0675 34.354 43.8331 34.354C46.6071 34.354 49.1961 35.1757 51.378 36.5926C49.6291 38.2463 48.1169 39.7181 47.2338 40.5843ZM56.1862 37.2281C53.4331 40.3352 50.6892 43.2425 49.7751 44.2033H48.2534V42.6513C49.1945 41.7213 52.0445 38.9264 55.0914 36.1209C58.4794 33.0025 60.5805 31.2768 61.8723 30.3217C60.9359 31.6382 59.2443 33.7789 56.1862 37.2281ZM59.1539 64.3243C55.0612 68.4956 49.6213 70.7924 43.833 70.7924C38.0456 70.7924 32.6049 68.4955 28.5122 64.3243C24.4203 60.1528 22.1662 54.6066 22.1662 48.7079C22.1662 42.8099 24.4203 37.2638 28.5122 33.0932C32.6048 28.9218 38.0455 26.6251 43.833 26.6251C47.6146 26.6251 51.2494 27.6069 54.455 29.4508L53.998 34.1534C53.9472 34.2003 53.8964 34.2464 53.844 34.2941C53.571 34.5457 53.2981 34.7971 53.0267 35.0478C50.3416 33.1619 47.1639 32.1453 43.8329 32.1453C39.4919 32.1453 35.4112 33.8687 32.3421 36.9968C29.273 40.1249 27.583 44.2841 27.583 48.7078C27.583 53.1332 29.273 57.2916 32.3421 60.4196C35.4112 63.5479 39.4919 65.2704 43.8329 65.2704C48.1738 65.2704 52.2538 63.5478 55.3229 60.4196C58.3936 57.2916 60.0837 53.1332 60.0837 48.7078C60.0837 45.3128 59.0855 42.0739 57.2351 39.3372C57.5271 39.0105 57.8207 38.6804 58.1127 38.3481L62.7275 37.8823C64.5365 41.1503 65.4999 44.8535 65.4999 48.7078C65.4999 54.6066 63.2465 60.1528 59.1539 64.3243ZM62.764 35.6591L60.2172 35.9163C61.4962 34.4072 62.5323 33.1141 63.3068 32.0587C63.9986 31.1158 64.4811 30.3678 64.7826 29.77C64.8318 29.6729 64.9048 29.5266 64.9762 29.3495L68.5562 29.7555L62.764 35.6591Z" fill="#373810"/>
</svg>
