<svg width="94" height="94" viewBox="0 0 94 94" fill="none" xmlns="http://www.w3.org/2000/svg">
<rect width="94" height="94" rx="5" fill="#FFFF00"/>
<path d="M55.3144 21C52.1922 21 49.2562 22.2201 47.0471 24.4354C44.7568 26.7321 43.546 29.8567 43.6484 33.0788L27.9967 52.4995C26.5558 54.2883 26.6911 56.8629 28.3125 58.4889L29.02 59.1984V61.7433C29.02 65.3726 31.9638 68.3246 35.5828 68.3246H49.9141C52.2534 68.3246 54.157 70.2336 54.157 72.5794C54.157 74.9259 52.2534 76.8349 49.9141 76.8349H37.8067C37.1662 76.8349 36.6468 77.3557 36.6468 77.9981C36.6468 78.6405 37.1662 79.1613 37.8067 79.1613H49.9141C53.5326 79.1613 56.4769 76.2087 56.4769 72.5794C56.4769 68.9501 53.5332 65.9981 49.9141 65.9981H35.5822C33.2429 65.9981 31.3393 64.0891 31.3393 61.7433V60.8741C31.7994 61.0318 32.286 61.1184 32.7867 61.1184C33.8055 61.1184 34.8037 60.7649 35.5964 60.1219L54.9522 44.4338C55.0798 44.4384 55.2087 44.4494 55.3356 44.4494C58.416 44.4494 61.3797 43.226 63.581 41.0178C68.1397 36.4464 68.1397 29.0082 63.581 24.436C61.3726 22.2201 58.4366 21 55.3144 21ZM47.5581 27.9367C48.4983 30.585 49.695 33.4375 52.1503 35.8996C54.1422 37.8978 56.6058 39.4992 59.6185 40.7729C58.1009 41.5904 56.3738 41.9749 54.6197 41.836C54.6191 41.836 54.6184 41.836 54.6178 41.836C54.6165 41.836 54.6158 41.8353 54.6145 41.8353C52.448 41.6731 50.4078 40.7335 48.8689 39.1903C47.3294 37.6477 46.393 35.6011 46.2313 33.4284C46.2313 33.4284 46.2313 33.4284 46.2313 33.4278C46.2313 33.4258 46.2313 33.4246 46.2313 33.4226C46.0785 31.4794 46.5567 29.5659 47.5581 27.9367ZM31.4469 57.977L30.1349 56.6613C29.4486 55.9724 29.3912 54.8822 30.0015 54.1248L30.7516 53.1936L34.9049 57.3586L33.9763 58.1108C33.241 58.7066 32.1146 58.6446 31.4469 57.977ZM36.4174 56.1327L31.9741 51.6769L44.2342 36.4645C44.8045 38.1673 45.7621 39.7286 47.0471 41.0172C48.3314 42.3058 49.889 43.2661 51.587 43.838L36.4174 56.1327ZM61.7599 39.1896C61.6729 39.2762 61.5775 39.3512 61.4879 39.4339C58.1872 38.1905 55.567 36.584 53.5177 34.5283C51.0167 32.0196 49.9792 29.0418 48.9868 26.157C50.6952 24.5007 52.9332 23.5849 55.3144 23.5849C57.7484 23.5849 60.0373 24.5362 61.7599 26.2636C65.3132 29.827 65.3132 35.6256 61.7599 39.1896Z" fill="#373810"/>
<path d="M43.2555 43.12L41.5168 44.9224C41.0219 45.4355 41.0354 46.2536 41.5471 46.7499C41.7978 46.9923 42.1206 47.1137 42.4435 47.1137C42.7799 47.1137 43.1169 46.9819 43.3702 46.7202L45.1088 44.9178C45.6037 44.4047 45.5902 43.5866 45.0785 43.0903C44.5662 42.5933 43.7504 42.6062 43.2555 43.12Z" fill="#373810"/>
</svg>
