<svg width="94" height="94" viewBox="0 0 94 94" fill="none" xmlns="http://www.w3.org/2000/svg">
<rect width="94" height="94" rx="5" fill="#FFFF00"/>
<path d="M46.65 22C39.7986 22 33.357 24.6588 28.5126 29.4868C23.6682 34.3142 21 40.7326 21 47.56C21 54.3874 23.6682 60.8058 28.5126 65.6332C33.357 70.4612 39.7986 73.12 46.65 73.12C53.5014 73.12 59.943 70.4612 64.7874 65.6332C69.6318 60.8058 72.3 54.3874 72.3 47.56C72.3 40.7326 69.6318 34.3142 64.7874 29.4868C59.943 24.6588 53.5014 22 46.65 22ZM54.4208 53.6972C58.7044 49.9178 64.2801 47.8241 70.0126 47.8429C69.9442 53.578 67.813 58.9813 63.9609 63.2044L54.4208 53.6972ZM52.8083 52.0904L48.262 47.56L63.9615 31.9156C67.4276 35.7161 69.5002 40.4736 69.9305 45.568C63.6275 45.5646 57.5051 47.9019 52.8083 52.0904ZM51.1826 53.683C46.8501 58.306 44.3729 64.4143 44.2703 70.7281C39.3016 70.2306 34.6697 68.1795 30.9505 64.8107L46.65 49.1663L51.1826 53.683ZM30.9505 30.3093C35.1884 26.4707 40.6114 24.347 46.3667 24.2788C46.3844 29.994 44.2822 35.5519 40.4911 39.8165L30.9505 30.3093ZM48.6484 24.3612C53.7607 24.79 58.5356 26.8547 62.3501 30.3093L46.65 45.9537L42.1037 41.4233C46.304 36.7476 48.6456 30.6444 48.6484 24.3612ZM29.3385 31.9156L38.894 41.4375C34.6059 45.4152 29.1271 47.6015 23.2823 47.6605C23.2823 47.627 23.28 47.5935 23.28 47.56C23.28 41.7198 25.4232 36.208 29.3385 31.9156ZM23.3997 49.9263C29.7352 49.824 35.865 47.3623 40.5065 43.0444L45.038 47.56L29.3385 63.2044C25.9567 59.4965 23.8979 54.8792 23.3997 49.9263ZM46.5497 70.8457C46.6112 65.0209 48.8023 59.563 52.7946 55.2893L62.3501 64.8113C58.042 68.7123 52.5107 70.848 46.65 70.848C46.6164 70.848 46.5833 70.8457 46.5497 70.8457Z" fill="#373810"/>
</svg>
