<svg width="94" height="94" viewBox="0 0 94 94" fill="none" xmlns="http://www.w3.org/2000/svg">
<rect width="94" height="94" rx="5" fill="#FFFF00"/>
<g clip-path="url(#clip0)">
<path d="M76.7113 31.7957C76.7099 31.7943 76.7084 31.7928 76.7071 31.7915L64.7059 19.7903C64.515 19.5964 64.2522 19.4904 63.9803 19.4973C63.7088 19.5021 63.451 19.6174 63.2664 19.8167L59.5511 23.8171C59.1887 24.2073 59.1956 24.8132 59.5668 25.1951L59.8484 25.4847L58.3733 26.9599L56.0429 26.3778C53.9528 25.8663 51.7477 26.4926 50.2386 28.0265L45.9877 32.9806L41.0482 28.0411C39.6401 26.625 37.55 26.1313 35.657 26.7675C35.544 26.8055 35.4386 26.863 35.3455 26.9374L35.074 27.1561L34.4157 26.4979L35.7088 25.2048C36.0993 24.8145 36.0995 24.1815 35.7092 23.7911C35.709 23.7909 35.7089 23.7908 35.7088 23.7907L31.7084 19.7903C31.3181 19.3998 30.6851 19.3996 30.2946 19.7899C30.2945 19.79 30.2944 19.7902 30.2943 19.7903L17.293 32.7916C16.9025 33.1819 16.9023 33.8149 17.2926 34.2053C17.2927 34.2055 17.2929 34.2056 17.293 34.2057L21.2934 38.2061C21.6837 38.5966 22.3167 38.5968 22.7073 38.2065C22.7074 38.2063 22.7075 38.2062 22.7077 38.2061L23.1593 37.7544L25.5292 40.1243L24.9471 42.4546C24.4366 44.514 25.0366 46.6905 26.5303 48.1974L35.0019 56.9128V64.7312C35.0202 66.5237 36.0261 68.1599 37.6174 68.9855C38.4706 69.4395 39.0034 70.3277 39.0022 71.2943V71.5023H38.0021C37.4501 71.502 37.0024 71.9493 37.0021 72.5013C37.0021 72.5017 37.0021 72.5021 37.0021 72.5024V77.5029C37.0017 78.055 37.449 78.5027 38.001 78.503C38.0014 78.503 38.0018 78.503 38.0021 78.503H57.004C57.5561 78.5034 58.0037 78.0561 58.0041 77.5041C58.0041 77.5037 58.0041 77.5033 58.0041 77.5029V72.5024C58.0045 71.9504 57.5572 71.5027 57.0051 71.5023C57.0048 71.5023 57.0044 71.5023 57.004 71.5023H56.0039V70.4974L57.5891 69.0354C59.106 67.8877 59.9994 66.0972 60.0043 64.195V52.4794C61.1885 52.3371 62.2894 51.7971 63.1267 50.9476L68.4134 45.2068C69.6561 43.973 70.0888 42.1399 69.5287 40.4807C69.3685 39.9984 70.2299 38.42 71.2563 37.2095C71.4394 37.3913 71.6859 37.495 71.944 37.4989H71.9537C72.217 37.4989 72.4698 37.395 72.6569 37.2097L76.7032 33.2094C77.0959 32.8213 77.0995 32.1884 76.7113 31.7957ZM22.0006 36.0849L19.4145 33.4986L31.0015 21.9115L33.5877 24.4976L22.0006 36.0849ZM35.0905 54.1344L27.9543 46.7929C26.9503 45.7826 26.5458 44.3219 26.8868 42.9391L27.6066 40.0599C27.6923 39.7192 27.5924 39.3587 27.3439 39.1106L24.5736 36.3403L33.0017 27.9122L34.2948 29.2053C34.6559 29.5662 35.2309 29.5974 35.6289 29.2776L36.4502 28.6164C37.5851 28.2991 38.803 28.62 39.6342 29.4554L45.1472 34.9684L45.1377 34.9755C44.6916 35.3854 44.359 35.904 44.1728 36.4805C43.5529 36.1446 42.8466 36.0028 42.1452 36.0733C40.3299 36.31 38.9792 37.8681 39.0022 39.6986V50.1576C37.0132 50.5683 35.4684 52.1387 35.0905 54.1344ZM56.0039 76.5028H39.0022V73.5025H56.0039V76.5028ZM58.0041 64.195C57.9925 65.5021 57.3648 66.7271 56.3106 67.5001L54.327 69.3225C54.1209 69.5119 54.0036 69.7791 54.0037 70.059V71.5025H41.0024V71.2945C41.0047 69.5887 40.0641 68.0213 38.5578 67.2208C37.6194 66.7418 37.0213 65.7847 37.0021 64.7313V55.0575C37.0059 53.7902 37.8069 52.6625 39.0022 52.2415V58.5012H41.0024V39.6985C40.9718 38.8925 41.5479 38.1906 42.3443 38.0636C42.7686 38.0198 43.1917 38.1578 43.5086 38.4435C43.8247 38.7265 44.0046 39.1314 44.0027 39.5559V54.5007H46.0029V37.5557C46.0023 36.7274 46.6732 36.0556 47.5015 36.055C47.5477 36.055 47.5938 36.0571 47.6398 36.0613C48.4498 36.1963 49.0335 36.9117 49.0032 37.7323V54.5006H51.0034V40.5559C51.0028 39.7277 51.6737 39.0559 52.5019 39.0553C52.5482 39.0553 52.5943 39.0574 52.6403 39.0616C53.4503 39.1966 54.034 39.912 54.0037 40.7326V54.5006H56.0039V46.2406C57.1993 46.6617 58.0002 47.7894 58.0041 49.0567V64.195ZM67.6319 41.1136C67.9496 42.0685 67.6927 43.1208 66.9707 43.8219L61.6841 49.5627C61.2267 50.025 60.6419 50.3402 60.0042 50.468V49.0568C60.0011 46.6815 58.3303 44.6351 56.0038 44.1569V40.7327C56.0389 38.8737 54.6602 37.2903 52.814 37.0692C52.1869 37.0165 51.557 37.1311 50.9885 37.4013C50.8708 35.6708 49.5362 34.2702 47.8135 34.0689C47.771 34.0653 47.7291 34.0733 47.6866 34.0713L51.7045 29.385C52.715 28.3814 54.1755 27.9768 55.5584 28.3175L58.4375 29.0373C58.7782 29.1227 59.1386 29.0229 59.3869 28.7745L61.2427 26.9187L69.8598 35.7802C68.9367 36.8511 67.0404 39.3397 67.6319 41.1136ZM71.9675 35.0788L61.6636 24.482L64.0252 21.9378L74.5819 32.4944L71.9675 35.0788Z" fill="#373810"/>
</g>
<defs>
<clipPath id="clip0">
<rect x="17" y="19" width="60" height="60" fill="white"/>
</clipPath>
</defs>
</svg>
