<svg width="94" height="94" viewBox="0 0 94 94" fill="none" xmlns="http://www.w3.org/2000/svg">
<rect width="94" height="94" rx="5" fill="#FFFF00"/>
<path d="M46.9227 50.9452C39.1174 50.9452 32.2064 55.6356 29.3162 62.8947C29.0532 63.5567 29.376 64.3055 30.0367 64.5685C30.1934 64.6314 30.3545 64.6604 30.513 64.6604C31.0253 64.6604 31.5098 64.3533 31.7111 63.8486C34.2086 57.5762 40.1796 53.5226 46.9227 53.5226C47.6343 53.5226 48.2114 52.9462 48.2114 52.2339C48.2114 51.5216 47.6343 50.9452 46.9227 50.9452Z" fill="#373810"/>
<path d="M46.8315 37.2385C47.0832 37.4902 47.4129 37.616 47.7426 37.616C48.0724 37.616 48.4021 37.4902 48.6538 37.2385C51.0915 34.8007 51.0915 30.8352 48.6544 28.3975C47.2216 26.964 47.2216 24.632 48.6538 23.1999C49.1572 22.6965 49.1572 21.881 48.6538 21.3776C48.1504 20.8741 47.3349 20.8741 46.8315 21.3776C44.3944 23.814 44.3944 27.7808 46.8315 30.2198C48.2637 31.652 48.2637 33.984 46.8315 35.4162C46.3281 35.9196 46.3281 36.7351 46.8315 37.2385Z" fill="#373810"/>
<path d="M34.1813 45.095C34.433 45.3467 34.7627 45.4726 35.0925 45.4726C35.4222 45.4726 35.7519 45.3467 36.0036 45.095C37.1847 43.9146 37.8354 42.3439 37.8354 40.6739C37.8354 39.0039 37.1847 37.4333 36.0036 36.2528C34.5715 34.8206 34.5715 32.4886 36.0036 31.0564C36.507 30.553 36.507 29.7375 36.0036 29.2341C35.5002 28.7307 34.6847 28.7307 34.1813 29.2341C31.7436 31.6718 31.7436 35.6374 34.1813 38.0751C34.8754 38.7698 35.258 39.6923 35.258 40.6739C35.258 41.6555 34.8754 42.578 34.1813 43.2727C33.6779 43.7761 33.6779 44.5916 34.1813 45.095Z" fill="#373810"/>
<path d="M59.5353 44.2586C59.787 44.5103 60.1168 44.6362 60.4465 44.6362C60.7762 44.6362 61.1059 44.5103 61.3576 44.2586C63.7954 41.8209 63.7954 37.8541 61.3576 35.4164C59.9255 33.9842 59.9255 31.6522 61.3576 30.22C61.861 29.7166 61.861 28.9011 61.3576 28.3977C60.8542 27.8943 60.0387 27.8943 59.5353 28.3977C57.0976 30.8354 57.0976 34.801 59.5353 37.2387C60.9681 38.6721 60.9681 41.0029 59.5353 42.4363C59.0319 42.9397 59.0319 43.7552 59.5353 44.2586Z" fill="#373810"/>
<path d="M77.688 67.9749C77.4589 67.5735 77.0317 67.3256 76.5692 67.3256H70.9468C69.7792 56.4287 61.4473 47.7888 50.8512 46.0474C51.2731 45.352 51.53 44.5456 51.53 43.6745C51.53 41.1336 49.4635 39.0671 46.9232 39.0671C44.383 39.0671 42.3165 41.1336 42.3165 43.6745C42.3165 44.5455 42.5735 45.352 42.9953 46.0474C32.3982 47.7886 24.0666 56.4287 22.8996 67.3256H17.2886C16.8268 67.3256 16.4001 67.5735 16.1705 67.9737C15.9408 68.3752 15.9433 68.8685 16.1774 69.2662C17.2043 71.0168 18.678 72.4703 20.4349 73.4671C22.1861 74.4701 24.184 74.9999 26.2121 74.9999H67.6458C71.7516 74.9999 75.5964 72.8038 77.6792 69.2687C77.9145 68.8697 77.9177 68.3764 77.688 67.9749ZM44.8939 43.6745C44.8939 42.5557 45.8044 41.6446 46.9232 41.6446C48.0421 41.6446 48.9526 42.5557 48.9526 43.6745C48.9526 44.7933 48.0421 45.7032 46.9232 45.7032C45.8044 45.7032 44.8939 44.7933 44.8939 43.6745ZM46.9232 48.2806C57.9163 48.2806 67.0908 56.5402 68.382 67.3243H25.4645C26.7551 56.5402 35.9302 48.2806 46.9232 48.2806ZM67.6458 72.4225H26.2121C24.6326 72.4225 23.0778 72.0097 21.7117 71.2269C21.0648 70.8607 20.4676 70.4152 19.934 69.903H73.9163C72.2481 71.4937 70.0023 72.4225 67.6458 72.4225Z" fill="#373810"/>
</svg>
