<svg width="94" height="94" viewBox="0 0 94 94" fill="none" xmlns="http://www.w3.org/2000/svg">
<rect width="94" height="94" rx="5" fill="#999C48" fill-opacity="0.2"/>
<path d="M47.65 21C40.7986 21 34.357 23.6588 29.5126 28.4868C24.6682 33.3142 22 39.7326 22 46.56C22 53.3874 24.6682 59.8058 29.5126 64.6332C34.357 69.4612 40.7986 72.12 47.65 72.12C54.5014 72.12 60.943 69.4612 65.7874 64.6332C70.6318 59.8058 73.3 53.3874 73.3 46.56C73.3 39.7326 70.6318 33.3142 65.7874 28.4868C60.943 23.6588 54.5014 21 47.65 21ZM55.4208 52.6972C59.7044 48.9178 65.2801 46.8241 71.0126 46.8429C70.9442 52.578 68.813 57.9813 64.9609 62.2044L55.4208 52.6972ZM53.8083 51.0904L49.262 46.56L64.9615 30.9156C68.4276 34.7161 70.5002 39.4736 70.9305 44.568C64.6275 44.5646 58.5051 46.9019 53.8083 51.0904ZM52.1826 52.683C47.8501 57.306 45.3729 63.4143 45.2703 69.7281C40.3016 69.2306 35.6697 67.1795 31.9505 63.8107L47.65 48.1663L52.1826 52.683ZM31.9505 29.3093C36.1884 25.4707 41.6114 23.347 47.3667 23.2788C47.3844 28.994 45.2822 34.5519 41.4911 38.8165L31.9505 29.3093ZM49.6484 23.3612C54.7607 23.79 59.5356 25.8547 63.3501 29.3093L47.65 44.9537L43.1037 40.4233C47.304 35.7476 49.6456 29.6444 49.6484 23.3612ZM30.3385 30.9156L39.894 40.4375C35.6059 44.4152 30.1271 46.6015 24.2823 46.6605C24.2823 46.627 24.28 46.5935 24.28 46.56C24.28 40.7198 26.4232 35.208 30.3385 30.9156ZM24.3997 48.9263C30.7352 48.824 36.865 46.3623 41.5065 42.0444L46.038 46.56L30.3385 62.2044C26.9567 58.4965 24.8979 53.8792 24.3997 48.9263ZM47.5497 69.8457C47.6112 64.0209 49.8023 58.563 53.7946 54.2893L63.3501 63.8113C59.042 67.7123 53.5107 69.848 47.65 69.848C47.6164 69.848 47.5833 69.8457 47.5497 69.8457Z" fill="#FFFF00"/>
</svg>
