<svg width="94" height="94" viewBox="0 0 94 94" fill="none" xmlns="http://www.w3.org/2000/svg">
<rect width="94" height="94" rx="5" fill="#999C48" fill-opacity="0.2"/>
<path d="M69.1882 34.2637C69.1659 34.1776 69.1343 34.0958 69.0953 34.0184C67.4783 30.1659 63.8327 27.3866 59.5113 27.0359V26.1604C59.5119 22.2117 56.3202 19 52.3974 19H43.2772C34.8564 19 28.0054 25.8952 28.0054 34.3704V73.912C28.0054 74.6009 28.5609 75.16 29.2454 75.16C29.9299 75.16 30.4854 74.6009 30.4854 73.912V56.1648H34.3337V58.599C34.3337 59.2879 34.8892 59.847 35.5737 59.847C36.2582 59.847 36.8137 59.2879 36.8137 58.599V51.2333C36.8137 50.5444 36.2582 49.9853 35.5737 49.9853C34.8892 49.9853 34.3337 50.5444 34.3337 51.2333V53.6682H30.4854V34.3704C30.4854 27.2717 36.2241 21.496 43.2772 21.496H52.3974C54.9524 21.496 57.0313 23.5889 57.0313 26.1604V27.0365C51.1735 27.5126 46.549 32.4528 46.549 38.4688C46.549 39.1577 47.1045 39.7168 47.789 39.7168H68.7536C68.7574 39.7168 68.7623 39.7162 68.766 39.7168C69.4505 39.7168 70.006 39.1577 70.006 38.4688C70.006 38.4045 70.0011 38.3428 69.9924 38.281C69.9701 36.8632 69.6793 35.5129 69.1882 34.2637ZM57.9551 29.4851H58.5881C61.6112 29.4851 64.2828 31.0095 65.8979 33.3302H50.6453C52.2604 31.0095 54.932 29.4851 57.9551 29.4851ZM49.1151 37.2202C49.1815 36.7416 49.2918 36.2773 49.4301 35.8262H67.1131C67.2514 36.2779 67.3617 36.7416 67.4281 37.2202H49.1151Z" fill="#FFFF00"/>
<path d="M52.0398 56.5161C51.3553 56.5161 50.7998 57.0752 50.7998 57.7641V60.2601C50.7998 60.949 51.3553 61.5081 52.0398 61.5081C52.7243 61.5081 53.2798 60.949 53.2798 60.2601V57.7641C53.2798 57.0752 52.7249 56.5161 52.0398 56.5161Z" fill="#FFFF00"/>
<path d="M52.0398 49.0281C51.3553 49.0281 50.7998 49.5872 50.7998 50.2761V52.7721C50.7998 53.461 51.3553 54.0201 52.0398 54.0201C52.7243 54.0201 53.2798 53.461 53.2798 52.7721V50.2761C53.2798 49.5872 52.7249 49.0281 52.0398 49.0281Z" fill="#FFFF00"/>
<path d="M52.0398 41.5402C51.3553 41.5402 50.7998 42.0993 50.7998 42.7882V45.2842C50.7998 45.9731 51.3553 46.5322 52.0398 46.5322C52.7243 46.5322 53.2798 45.9731 53.2798 45.2842V42.7882C53.2798 42.0993 52.7249 41.5402 52.0398 41.5402Z" fill="#FFFF00"/>
<path d="M58.2717 56.5161C57.5873 56.5161 57.0317 57.0752 57.0317 57.7641V60.2601C57.0317 60.949 57.5873 61.5081 58.2717 61.5081C58.9562 61.5081 59.5117 60.949 59.5117 60.2601V57.7641C59.5117 57.0752 58.9562 56.5161 58.2717 56.5161Z" fill="#FFFF00"/>
<path d="M58.2717 49.0281C57.5873 49.0281 57.0317 49.5872 57.0317 50.2761V52.7721C57.0317 53.461 57.5873 54.0201 58.2717 54.0201C58.9562 54.0201 59.5117 53.461 59.5117 52.7721V50.2761C59.5117 49.5872 58.9562 49.0281 58.2717 49.0281Z" fill="#FFFF00"/>
<path d="M58.2717 41.5402C57.5873 41.5402 57.0317 42.0993 57.0317 42.7882V45.2842C57.0317 45.9731 57.5873 46.5322 58.2717 46.5322C58.9562 46.5322 59.5117 45.9731 59.5117 45.2842V42.7882C59.5117 42.0993 58.9562 41.5402 58.2717 41.5402Z" fill="#FFFF00"/>
<path d="M64.5037 49.0281C63.8192 49.0281 63.2637 49.5872 63.2637 50.2761V52.7721C63.2637 53.461 63.8192 54.0201 64.5037 54.0201C65.1882 54.0201 65.7437 53.461 65.7437 52.7721V50.2761C65.7437 49.5872 65.1882 49.0281 64.5037 49.0281Z" fill="#FFFF00"/>
<path d="M64.5037 56.5161C63.8192 56.5161 63.2637 57.0752 63.2637 57.7641V60.2601C63.2637 60.949 63.8192 61.5081 64.5037 61.5081C65.1882 61.5081 65.7437 60.949 65.7437 60.2601V57.7641C65.7437 57.0752 65.1882 56.5161 64.5037 56.5161Z" fill="#FFFF00"/>
<path d="M64.5037 41.5402C63.8192 41.5402 63.2637 42.0993 63.2637 42.7882V45.2842C63.2637 45.9731 63.8192 46.5322 64.5037 46.5322C65.1882 46.5322 65.7437 45.9731 65.7437 45.2842V42.7882C65.7437 42.0993 65.1882 41.5402 64.5037 41.5402Z" fill="#FFFF00"/>
</svg>
