<svg width="94" height="94" viewBox="0 0 94 94" fill="none" xmlns="http://www.w3.org/2000/svg">
<rect width="94" height="94" rx="5" fill="#FFFF00"/>
<path d="M69.1882 36.3838C69.1659 36.2977 69.1343 36.2159 69.0953 36.1385C67.4783 32.286 63.8327 29.5067 59.5113 29.156V28.2805C59.5119 24.3318 56.3202 21.1201 52.3974 21.1201H43.2772C34.8564 21.1201 28.0054 28.0153 28.0054 36.4905V76.0321C28.0054 76.721 28.5609 77.2801 29.2454 77.2801C29.9299 77.2801 30.4854 76.721 30.4854 76.0321V58.2849H34.3337V60.7192C34.3337 61.4081 34.8892 61.9672 35.5737 61.9672C36.2582 61.9672 36.8137 61.4081 36.8137 60.7192V53.3535C36.8137 52.6646 36.2582 52.1055 35.5737 52.1055C34.8892 52.1055 34.3337 52.6646 34.3337 53.3535V55.7883H30.4854V36.4905C30.4854 29.3919 36.2241 23.6161 43.2772 23.6161H52.3974C54.9524 23.6161 57.0313 25.709 57.0313 28.2805V29.1566C51.1735 29.6327 46.549 34.5729 46.549 40.5889C46.549 41.2778 47.1045 41.8369 47.789 41.8369H68.7536C68.7574 41.8369 68.7623 41.8363 68.766 41.8369C69.4505 41.8369 70.006 41.2778 70.006 40.5889C70.006 40.5246 70.0011 40.4629 69.9924 40.4011C69.9701 38.9834 69.6793 37.633 69.1882 36.3838ZM57.9551 31.6052H58.5881C61.6112 31.6052 64.2828 33.1296 65.8979 35.4503H50.6453C52.2604 33.1296 54.932 31.6052 57.9551 31.6052ZM49.1151 39.3403C49.1815 38.8617 49.2918 38.3974 49.4301 37.9463H67.1131C67.2514 38.3981 67.3617 38.8617 67.4281 39.3403H49.1151Z" fill="#373810"/>
<path d="M52.0396 58.6362C51.3551 58.6362 50.7996 59.1953 50.7996 59.8842V62.3802C50.7996 63.0691 51.3551 63.6282 52.0396 63.6282C52.724 63.6282 53.2796 63.0691 53.2796 62.3802V59.8842C53.2796 59.1953 52.7247 58.6362 52.0396 58.6362Z" fill="#373810"/>
<path d="M52.0396 51.1482C51.3551 51.1482 50.7996 51.7073 50.7996 52.3962V54.8922C50.7996 55.5811 51.3551 56.1402 52.0396 56.1402C52.724 56.1402 53.2796 55.5811 53.2796 54.8922V52.3962C53.2796 51.7073 52.7247 51.1482 52.0396 51.1482Z" fill="#373810"/>
<path d="M52.0396 43.6603C51.3551 43.6603 50.7996 44.2194 50.7996 44.9083V47.4043C50.7996 48.0932 51.3551 48.6523 52.0396 48.6523C52.724 48.6523 53.2796 48.0932 53.2796 47.4043V44.9083C53.2796 44.2194 52.7247 43.6603 52.0396 43.6603Z" fill="#373810"/>
<path d="M58.272 58.6362C57.5875 58.6362 57.032 59.1953 57.032 59.8842V62.3802C57.032 63.0691 57.5875 63.6282 58.272 63.6282C58.9565 63.6282 59.512 63.0691 59.512 62.3802V59.8842C59.512 59.1953 58.9565 58.6362 58.272 58.6362Z" fill="#373810"/>
<path d="M58.272 51.1482C57.5875 51.1482 57.032 51.7073 57.032 52.3962V54.8922C57.032 55.5811 57.5875 56.1402 58.272 56.1402C58.9565 56.1402 59.512 55.5811 59.512 54.8922V52.3962C59.512 51.7073 58.9565 51.1482 58.272 51.1482Z" fill="#373810"/>
<path d="M58.272 43.6603C57.5875 43.6603 57.032 44.2194 57.032 44.9083V47.4043C57.032 48.0932 57.5875 48.6523 58.272 48.6523C58.9565 48.6523 59.512 48.0932 59.512 47.4043V44.9083C59.512 44.2194 58.9565 43.6603 58.272 43.6603Z" fill="#373810"/>
<path d="M64.5034 51.1482C63.8189 51.1482 63.2634 51.7073 63.2634 52.3962V54.8922C63.2634 55.5811 63.8189 56.1402 64.5034 56.1402C65.1879 56.1402 65.7434 55.5811 65.7434 54.8922V52.3962C65.7434 51.7073 65.1879 51.1482 64.5034 51.1482Z" fill="#373810"/>
<path d="M64.5034 58.6362C63.8189 58.6362 63.2634 59.1953 63.2634 59.8842V62.3802C63.2634 63.0691 63.8189 63.6282 64.5034 63.6282C65.1879 63.6282 65.7434 63.0691 65.7434 62.3802V59.8842C65.7434 59.1953 65.1879 58.6362 64.5034 58.6362Z" fill="#373810"/>
<path d="M64.5034 43.6603C63.8189 43.6603 63.2634 44.2194 63.2634 44.9083V47.4043C63.2634 48.0932 63.8189 48.6523 64.5034 48.6523C65.1879 48.6523 65.7434 48.0932 65.7434 47.4043V44.9083C65.7434 44.2194 65.1879 43.6603 64.5034 43.6603Z" fill="#373810"/>
</svg>
