<svg width="94" height="94" viewBox="0 0 94 94" fill="none" xmlns="http://www.w3.org/2000/svg">
<rect width="94" height="94" rx="5" fill="#999C48" fill-opacity="0.2"/>
<path d="M64.8672 58.7461C64.8672 59.361 64.3688 59.8594 63.7539 59.8594C63.139 59.8594 62.6406 59.361 62.6406 58.7461C62.6406 58.1312 63.139 57.6328 63.7539 57.6328C64.3688 57.6328 64.8672 58.1312 64.8672 58.7461Z" fill="#FFFF00"/>
<path d="M32.3594 58.7461C32.3594 59.361 31.861 59.8594 31.2461 59.8594C30.6312 59.8594 30.1328 59.361 30.1328 58.7461C30.1328 58.1312 30.6312 57.6328 31.2461 57.6328C31.861 57.6328 32.3594 58.1312 32.3594 58.7461Z" fill="#FFFF00"/>
<path d="M70.4336 28.6875H52.5098C51.8949 28.6875 51.3965 29.1859 51.3965 29.8008C51.3965 30.4157 51.8949 30.9141 52.5098 30.9141H70.4336C72.2753 30.9141 73.7734 32.4122 73.7734 34.2539V35.3672H21.2266V32.0273C21.2266 31.4133 21.7258 30.9141 22.3398 30.9141H42.4902C43.1051 30.9141 43.6035 30.4157 43.6035 29.8008C43.6035 29.1859 43.1051 28.6875 42.4902 28.6875H22.3398C20.4981 28.6875 19 30.1856 19 32.0273V56.5195C19 58.3612 20.4981 59.8594 22.3398 59.8594H25.7919C25.9593 60.6817 26.309 61.4384 26.796 62.0859H20.1133C19.4984 62.0859 19 62.5843 19 63.1992C19 63.8141 19.4984 64.3125 20.1133 64.3125H74.8867C75.5016 64.3125 76 63.8141 76 63.1992C76 62.5843 75.5016 62.0859 74.8867 62.0859H68.204C68.6915 61.4384 69.0407 60.6817 69.2081 59.8594H72.6602C74.5019 59.8594 76 58.3612 76 56.5195V34.2539C76 31.1846 73.5029 28.6875 70.4336 28.6875ZM73.7734 48.7266H68.4697L64.8672 46.9253V37.5938H73.7734V48.7266ZM34.5859 46.5V37.5938H46.3867V46.5H34.5859ZM48.6133 37.5938H62.6406V46.5H48.6133V37.5938ZM32.3594 37.5938V46.5H21.2266V37.5938H32.3594ZM27.9062 58.7461C27.9062 56.9044 29.4044 55.4062 31.2461 55.4062C33.0878 55.4062 34.5859 56.9044 34.5859 58.7461C34.5859 60.5878 33.0878 62.0859 31.2461 62.0859C29.4044 62.0859 27.9062 60.5878 27.9062 58.7461ZM58.2997 59.8594C58.4671 60.6817 58.8168 61.4384 59.3038 62.0859H35.6962C36.1837 61.4384 36.5329 60.6817 36.7003 59.8594H58.2997ZM60.4141 58.7461C60.4141 56.9044 61.9122 55.4062 63.7539 55.4062C65.5956 55.4062 67.0938 56.9044 67.0938 58.7461C67.0938 60.5878 65.5956 62.0859 63.7539 62.0859C61.9122 62.0859 60.4141 60.5878 60.4141 58.7461ZM72.6602 57.6328H69.2081C68.691 55.0949 66.4423 53.1797 63.7539 53.1797C61.0655 53.1797 58.8168 55.0949 58.2997 57.6328H36.7003C36.1832 55.0949 33.9345 53.1797 31.2461 53.1797C28.5577 53.1797 26.309 55.0949 25.7919 57.6328H22.3398C21.7258 57.6328 21.2266 57.1336 21.2266 56.5195V55.4062H23.4531C24.068 55.4062 24.5664 54.9079 24.5664 54.293C24.5664 53.6781 24.068 53.1797 23.4531 53.1797H21.2266V48.7266H63.4912L67.7091 50.8357C67.8639 50.9127 68.0344 50.9531 68.207 50.9531H73.7734V53.1797H71.5469C70.9324 53.1797 70.4336 53.6781 70.4336 54.293C70.4336 54.9079 70.9324 55.4062 71.5469 55.4062H73.7734V56.5195C73.7734 57.1336 73.2742 57.6328 72.6602 57.6328Z" fill="#FFFF00"/>
<path d="M48.6133 29.8008C48.6133 30.4157 48.1149 30.9141 47.5 30.9141C46.8851 30.9141 46.3867 30.4157 46.3867 29.8008C46.3867 29.1859 46.8851 28.6875 47.5 28.6875C48.1149 28.6875 48.6133 29.1859 48.6133 29.8008Z" fill="#FFFF00"/>
<path d="M57.0742 50.9531H37.9258C37.3109 50.9531 36.8125 51.4515 36.8125 52.0664C36.8125 52.6813 37.3109 53.1797 37.9258 53.1797H57.0742C57.6891 53.1797 58.1875 52.6813 58.1875 52.0664C58.1875 51.4515 57.6891 50.9531 57.0742 50.9531Z" fill="#FFFF00"/>
</svg>
