<svg width="94" height="94" viewBox="0 0 94 94" fill="none" xmlns="http://www.w3.org/2000/svg">
<rect width="94" height="94" rx="5" fill="#999C48" fill-opacity="0.2"/>
<path d="M76.7113 30.2988C76.7099 30.2974 76.7084 30.2959 76.7071 30.2945L64.7059 18.2933C64.515 18.0994 64.2522 17.9934 63.9803 18.0003C63.7088 18.0052 63.451 18.1205 63.2664 18.3197L59.5511 22.3201C59.1887 22.7104 59.1956 23.3162 59.5668 23.6981L59.8484 23.9878L58.3733 25.4629L56.0429 24.8809C53.9528 24.3693 51.7477 24.9956 50.2386 26.5295L45.9877 31.4836L41.0482 26.5442C39.6401 25.128 37.55 24.6343 35.657 25.2705C35.544 25.3085 35.4386 25.366 35.3455 25.4404L35.074 25.6592L34.4157 25.001L35.7088 23.7079C36.0993 23.3176 36.0995 22.6845 35.7092 22.2941C35.709 22.294 35.7089 22.2939 35.7088 22.2937L31.7084 18.2933C31.3181 17.9028 30.6851 17.9027 30.2946 18.293C30.2945 18.2931 30.2944 18.2932 30.2943 18.2933L17.293 31.2946C16.9025 31.6849 16.9023 32.318 17.2926 32.7084C17.2927 32.7085 17.2929 32.7086 17.293 32.7088L21.2934 36.7091C21.6837 37.0997 22.3167 37.0998 22.7073 36.7095C22.7074 36.7094 22.7075 36.7093 22.7077 36.7091L23.1593 36.2575L25.5292 38.6273L24.9471 40.9577C24.4366 43.017 25.0366 45.1936 26.5303 46.7005L35.0019 55.4159V63.2342C35.0202 65.0268 36.0261 66.663 37.6174 67.4885C38.4706 67.9426 39.0034 68.8308 39.0022 69.7974V70.0054H38.0021C37.4501 70.005 37.0024 70.4523 37.0021 71.0044C37.0021 71.0047 37.0021 71.0051 37.0021 71.0055V76.006C37.0017 76.558 37.449 77.0057 38.001 77.0061C38.0014 77.0061 38.0018 77.0061 38.0021 77.0061H57.004C57.5561 77.0065 58.0037 76.5592 58.0041 76.0071C58.0041 76.0067 58.0041 76.0064 58.0041 76.006V71.0055C58.0045 70.4534 57.5572 70.0058 57.0051 70.0054C57.0048 70.0054 57.0044 70.0054 57.004 70.0054H56.0039V69.0004L57.5891 67.5384C59.106 66.3908 59.9994 64.6002 60.0043 62.6981V50.9824C61.1885 50.8401 62.2894 50.3001 63.1267 49.4506L68.4134 43.7098C69.6561 42.4761 70.0888 40.6429 69.5287 38.9837C69.3685 38.5014 70.2299 36.923 71.2563 35.7125C71.4394 35.8943 71.6859 35.9981 71.944 36.002H71.9537C72.217 36.002 72.4698 35.8981 72.6569 35.7128L76.7032 31.7124C77.0959 31.3244 77.0995 30.6914 76.7113 30.2988ZM22.0006 34.5879L19.4145 32.0017L31.0015 20.4146L33.5877 23.0007L22.0006 34.5879ZM35.0905 52.6375L27.9543 45.296C26.9503 44.2856 26.5458 42.825 26.8868 41.4421L27.6066 38.563C27.6923 38.2223 27.5924 37.8618 27.3439 37.6136L24.5736 34.8433L33.0017 26.4153L34.2948 27.7084C34.6559 28.0693 35.2309 28.1004 35.6289 27.7806L36.4502 27.1195C37.5851 26.8022 38.803 27.1231 39.6342 27.9584L45.1472 33.4715L45.1377 33.4786C44.6916 33.8885 44.359 34.407 44.1728 34.9836C43.5529 34.6477 42.8466 34.5058 42.1452 34.5763C40.3299 34.8131 38.9792 36.3711 39.0022 38.2017V48.6607C37.0132 49.0714 35.4684 50.6418 35.0905 52.6375ZM56.0039 75.0059H39.0022V72.0056H56.0039V75.0059ZM58.0041 62.6981C57.9925 64.0052 57.3648 65.2302 56.3106 66.0031L54.327 67.8256C54.1209 68.015 54.0036 68.2821 54.0037 68.562V70.0055H41.0024V69.7975C41.0047 68.0917 40.0641 66.5243 38.5578 65.7239C37.6194 65.2448 37.0213 64.2877 37.0021 63.2344V53.5605C37.0059 52.2933 37.8069 51.1656 39.0022 50.7445V57.0043H41.0024V38.2015C40.9718 37.3956 41.5479 36.6936 42.3443 36.5666C42.7686 36.5229 43.1917 36.6609 43.5086 36.9465C43.8247 37.2296 44.0046 37.6345 44.0027 38.0589V53.0037H46.0029V36.0587C46.0023 35.2305 46.6732 34.5587 47.5015 34.5581C47.5477 34.5581 47.5938 34.5602 47.6398 34.5643C48.4498 34.6993 49.0335 35.4148 49.0032 36.2353V53.0036H51.0034V39.059C51.0028 38.2308 51.6737 37.559 52.5019 37.5584C52.5482 37.5584 52.5943 37.5605 52.6403 37.5646C53.4503 37.6996 54.034 38.4151 54.0037 39.2356V53.0036H56.0039V44.7437C57.1993 45.1647 58.0002 46.2925 58.0041 47.5597V62.6981ZM67.6319 39.6167C67.9496 40.5715 67.6927 41.6239 66.9707 42.3249L61.6841 48.0658C61.2267 48.5281 60.6419 48.8432 60.0042 48.9711V47.5598C60.0011 45.1846 58.3303 43.1381 56.0038 42.66V39.2358C56.0389 37.3767 54.6602 35.7933 52.814 35.5723C52.1869 35.5195 51.557 35.6342 50.9885 35.9043C50.8708 34.1739 49.5362 32.7733 47.8135 32.572C47.771 32.5684 47.7291 32.5764 47.6866 32.5744L51.7045 27.888C52.715 26.8844 54.1755 26.4799 55.5584 26.8206L58.4375 27.5404C58.7782 27.6258 59.1386 27.526 59.3869 27.2776L61.2427 25.4218L69.8598 34.2833C68.9367 35.3541 67.0404 37.8428 67.6319 39.6167ZM71.9675 33.5818L61.6636 22.9851L64.0252 20.4408L74.5819 30.9975L71.9675 33.5818Z" fill="#FFFF00"/>
</svg>
