<svg width="94" height="94" viewBox="0 0 94 94" fill="none" xmlns="http://www.w3.org/2000/svg">
<rect width="94" height="94" rx="5" fill="#999C48" fill-opacity="0.2"/>
<g clip-path="url(#clip0)">
<path d="M65.6105 35.2015L66.9396 34.4745C67.539 33.969 67.539 33.4636 66.9396 32.958L65.1982 32.0056L64.2235 29.7983C63.6964 29.1115 63.1693 29.1115 62.6423 29.7983L61.8838 31.5161C59.0824 29.3101 55.8191 27.7888 52.3601 27.0496C52.318 24.8322 50.5284 23.3217 48.3635 23.4316V18.8518C48.3635 17.7343 46.6349 17.7343 46.6349 18.8518V23.4316C44.4542 23.3128 42.682 24.846 42.6383 27.0469C32.1392 29.2883 24.2407 38.6349 24.2407 49.7929C24.2407 62.6176 34.6744 73.0513 47.4992 73.0513C53.0891 73.0513 58.4923 71.0392 62.7136 67.3854C63.5585 66.6541 62.4271 65.3467 61.5824 66.0784C59.3539 68.0073 56.7689 69.4411 53.9993 70.3177C55.2177 69.2111 56.34 67.7833 57.3295 66.0578C58.5625 63.9076 59.5215 61.412 60.1776 58.6995H67.1093C66.489 60.0608 65.723 61.3636 64.8152 62.5899C64.1655 63.4674 65.5164 64.5478 66.2045 63.6184C69.1833 59.5947 70.7579 54.8138 70.7579 49.7929C70.7577 44.4721 68.9352 39.3252 65.6105 35.2015ZM59.4767 49.7929C59.4767 52.2774 59.2409 54.6957 58.7894 56.971H48.3636V42.6148H58.7894C59.2409 44.89 59.4767 47.3084 59.4767 49.7929ZM46.635 71.2657C44.3123 70.9645 42.1113 69.4503 40.2242 66.8392C38.6619 64.6774 37.4199 61.864 36.6075 58.6994H46.6352V71.2657H46.635ZM36.2137 56.9708C36.0883 56.3433 35.9789 55.7052 35.8873 55.0579C35.8794 55.0028 35.8662 54.9501 35.8489 54.8992L37.0787 52.1142L39.5976 50.7365C40.1971 50.231 40.1971 49.7256 39.5976 49.22L37.0787 47.8424L35.8243 45.0017C35.9278 44.1942 36.0583 43.3969 36.2145 42.6146H46.635V56.9707H36.2137V56.9708ZM25.9694 49.7929C25.9694 47.2769 26.4046 44.8611 27.2014 42.6148H34.4541C34.3297 43.2699 34.2227 43.934 34.1335 44.6045C33.5688 45.6273 33.1696 46.7734 32.6976 47.8424L30.1786 49.22C29.5792 49.7256 29.5792 50.231 30.1786 50.7365L32.6976 52.1142L34.0975 55.2845C34.1244 55.3454 34.1595 55.4006 34.1983 55.4525C34.2732 55.9666 34.3579 56.4727 34.4519 56.9708H27.2014C26.4046 54.7247 25.9694 52.3088 25.9694 49.7929ZM35.6159 51.1477L34.8881 52.7959L34.1603 51.1477C34.0834 50.9737 33.9514 50.8299 33.7844 50.7386L32.3945 49.9784L33.7844 49.2183C33.9514 49.127 34.0834 48.9832 34.1603 48.8092L34.8881 47.161L35.6159 48.8092C35.6927 48.9833 35.8248 49.1271 35.9918 49.2184L37.3816 49.9785L35.9918 50.7387C35.8249 50.8298 35.6927 50.9737 35.6159 51.1477ZM48.3636 40.8862V28.3194C51.1519 28.6839 53.7762 30.8061 55.83 34.3876C56.922 36.2919 57.7858 38.4919 58.3982 40.8862H48.3636ZM57.3295 33.5279C56.3402 31.8025 55.218 30.375 53.9997 29.2684C56.3357 30.008 58.5401 31.1445 60.5096 32.639L59.9262 32.958C59.3268 33.4636 59.3268 33.969 59.9262 34.4745L61.6676 35.427L62.6423 37.6342C63.1693 38.321 63.6964 38.321 64.2235 37.6342L64.6195 36.7376C65.605 38.029 66.4361 39.4214 67.1015 40.8863H60.1775C59.5215 38.1736 58.5624 35.6781 57.3295 33.5279ZM63.1304 32.9723L63.4329 32.2871C63.6326 32.9592 64.0767 33.4533 64.7237 33.7163C64.0765 33.9817 63.6316 34.4742 63.4329 35.1454C63.2332 34.4734 62.7891 33.9792 62.1421 33.7163C62.4594 33.5881 62.9908 33.2882 63.1304 32.9723ZM46.1546 25.1602H48.844C49.7611 25.1602 50.5182 25.8546 50.6194 26.745C48.5512 26.465 46.4478 26.4658 44.3795 26.7443C44.4808 25.8542 45.2378 25.1602 46.1546 25.1602ZM41.0095 29.2633C40.4135 29.8042 39.8386 30.4223 39.2892 31.1173C38.5962 31.9941 39.952 33.0658 40.6453 32.1894C42.4363 29.9237 44.4916 28.6009 46.6352 28.3201V40.8862H36.6077C37.0349 39.219 37.581 37.6434 38.2324 36.2163C38.6965 35.1998 37.1241 34.482 36.6599 35.4985C35.911 37.1395 35.294 38.9608 34.8271 40.8862H27.8997C30.4115 35.3806 35.1768 31.1112 41.0095 29.2633ZM27.8997 58.6994H34.8225C36.0442 63.7594 38.2608 67.8324 41.0292 70.3288C35.1875 68.4843 30.4144 64.2113 27.8997 58.6994ZM55.8299 65.1981C53.7762 68.7796 51.1519 70.9019 48.3635 71.2663V58.6994H58.3981C57.7857 61.0937 56.9219 63.2938 55.8299 65.1981ZM60.5492 56.9708C60.9808 54.6824 61.2053 52.2664 61.2053 49.7927C61.2053 47.3191 60.9808 44.9032 60.5492 42.6146H67.7976C68.6059 44.9013 69.0291 47.3268 69.0291 49.7927C69.0291 52.2731 68.6138 54.69 67.8077 56.9708H60.5492Z" fill="#FFFF00"/>
<path d="M39.3301 62.6267C39.3729 62.7266 40.3965 65.0931 42.0262 66.8499C42.7925 67.676 44.0493 66.4891 43.2935 65.6743C41.8718 64.1418 40.9282 61.9674 40.9189 61.9456C40.4784 60.919 38.8903 61.5998 39.3301 62.6267Z" fill="#FFFF00"/>
<path d="M66.7626 44.5538C66.3955 43.4985 64.7629 44.0663 65.1301 45.1218C65.1381 45.145 65.9374 47.4721 65.8509 49.7604C65.81 50.845 67.5352 50.9638 67.5782 49.8256C67.6769 47.2152 66.8001 44.6612 66.7626 44.5538Z" fill="#FFFF00"/>
<path d="M70.0952 37.7687C70.2311 37.7687 70.3691 37.7366 70.4978 37.6687L76.5394 34.4809C77.5278 33.9593 76.7212 32.4307 75.7328 32.952L69.6911 36.1398C68.9775 36.5163 69.1764 37.7687 70.0952 37.7687Z" fill="#FFFF00"/>
<path d="M58.4783 27.5416C58.9183 27.7381 59.3037 27.6059 59.6345 27.1452L63.5067 19.2317C63.9978 18.2278 62.4452 17.4683 61.954 18.4719L58.0818 26.3853C57.872 26.8142 58.0495 27.3318 58.4783 27.5416Z" fill="#FFFF00"/>
<path d="M24.7802 61.0347L18.5381 63.5704C17.5185 63.9847 18.189 65.578 19.1887 65.1719L25.4309 62.6361C26.4662 62.2156 25.8155 60.6138 24.7802 61.0347Z" fill="#FFFF00"/>
<path d="M34.855 71.4301C34.4371 71.1999 33.9114 71.3521 33.681 71.7701L31.5121 75.7076C30.998 76.6411 32.4498 77.588 33.0262 76.5415L35.1951 72.6041C35.4254 72.186 35.2731 71.6604 34.855 71.4301Z" fill="#FFFF00"/>
<path d="M18.4601 34.4809L24.7022 37.7746C25.6448 38.2719 26.5253 36.782 25.5089 36.2457L19.2667 32.952C18.2783 32.4308 17.4717 33.9594 18.4601 34.4809Z" fill="#FFFF00"/>
<path d="M35.3649 27.1454C35.8963 28.231 37.3816 27.3341 36.9176 26.3856L33.0454 18.4722C32.5542 17.4685 31.0017 18.2281 31.4927 19.232L35.3649 27.1454Z" fill="#FFFF00"/>
<path d="M76.4616 63.5706L70.2195 61.0348C69.1841 60.6144 68.5336 62.2156 69.5688 62.6362L75.811 65.172C76.8075 65.5768 77.4927 63.9895 76.4616 63.5706Z" fill="#FFFF00"/>
<path d="M61.3188 71.77C60.7796 70.7912 59.2655 71.6252 59.8047 72.604L61.9736 76.5414C62.55 77.5878 64.0019 76.6409 63.4877 75.7074L61.3188 71.77Z" fill="#FFFF00"/>
</g>
<defs>
<clipPath id="clip0">
<rect x="18" y="18" width="59" height="59" fill="white"/>
</clipPath>
</defs>
</svg>
