<svg width="94" height="94" viewBox="0 0 94 94" fill="none" xmlns="http://www.w3.org/2000/svg">
<rect width="94" height="94" rx="5" fill="#999C48" fill-opacity="0.2"/>
<g clip-path="url(#clip0)">
<path d="M76.9775 20.6417C76.8708 20.1932 76.4203 19.9161 75.972 20.0227C75.8326 20.0559 61.875 23.3398 48.5004 23.3398C35.1258 23.3398 21.1683 20.0559 21.0289 20.0227C20.5799 19.9149 20.13 20.1929 20.0234 20.6417C19.9166 21.0902 20.1937 21.5405 20.6422 21.6472C20.6772 21.6556 21.5678 21.8653 23.094 22.1764L26.323 32.5795C26.5266 33.2355 27.3942 33.378 27.7969 32.8214L34.1732 24.0086C34.5025 24.0508 34.8352 24.0922 35.1712 24.1329L39.3893 34.2041C39.654 34.8358 40.5302 34.8996 40.8797 34.3041L46.3494 24.9829C47.0665 25.0005 47.7844 25.0098 48.5006 25.0098C49.2167 25.0098 49.9345 25.0005 50.6517 24.9829L56.1213 34.3041C56.4708 34.8995 57.347 34.8358 57.6117 34.2041L58.9189 31.0832C59.097 30.6579 58.8966 30.1686 58.4712 29.9905C58.0462 29.8122 57.5567 30.0127 57.3785 30.438L56.7165 32.0188L52.5497 24.9177C55.0711 24.8067 57.5621 24.6032 59.9285 24.3498L58.7551 27.1516C58.577 27.5769 58.7774 28.0662 59.2026 28.2443C59.628 28.4223 60.1172 28.222 60.2953 27.7968L61.8299 24.1328C62.1659 24.0922 62.4987 24.0507 62.828 24.0086L69.2044 32.8214C69.6075 33.3785 70.4743 33.2362 70.6782 32.5795L73.9072 22.1764C75.4333 21.8653 76.3239 21.6556 76.3589 21.6473C76.8073 21.5405 77.0843 21.0902 76.9775 20.6417ZM27.4227 30.4896L24.9562 22.5426C26.915 22.9146 29.4355 23.3528 32.2948 23.7559L27.4227 30.4896ZM40.2845 32.0187L37.0725 24.3497C39.4389 24.6031 41.9299 24.8066 44.4514 24.9176L40.2845 32.0187ZM69.5781 30.4896L64.7062 23.7558C67.5655 23.3527 70.086 22.9146 72.0448 22.5425L69.5781 30.4896Z" fill="#FFFF00"/>
<path d="M74.6619 68.6505H66.2071C66.4885 68.4342 66.7578 68.1981 67.0131 67.9429C67.3392 67.6167 67.3392 67.0882 67.0131 66.7621C66.6869 66.4361 66.1583 66.4361 65.8322 66.7621C64.6145 67.9799 62.9956 68.6506 61.2738 68.6506H47.5603C44.0055 68.6506 41.1133 65.7586 41.1133 62.2036C41.1133 59.4944 42.1682 56.9479 44.0838 55.0334C45.9995 53.1178 48.546 52.0629 51.2541 52.0629H57.5797C58.234 52.0629 58.8817 52.1249 59.5166 52.2479L58.1233 53.6413C56.1222 55.6425 56.1222 58.8989 58.1234 60.9004L58.4216 61.1984C59.4223 62.1991 60.7367 62.6994 62.0511 62.6994C63.3655 62.6994 64.6799 62.1991 65.6806 61.1984L67.3614 59.5175C67.6001 60.3868 67.7206 61.286 67.7206 62.2037C67.7206 62.8526 67.6248 63.4926 67.4358 64.1058C67.3 64.5465 67.5471 65.0138 67.9878 65.1496C68.0697 65.175 68.1524 65.1869 68.234 65.1869C68.5907 65.1869 68.9211 64.9564 69.0316 64.5976C69.2698 63.8249 69.3905 63.0194 69.3905 62.2037C69.3905 60.8009 69.1484 59.4345 68.6701 58.1343C69.2344 57.3648 69.5392 56.4369 69.5392 55.4602C69.5392 54.777 69.3902 54.1179 69.1075 53.52L70.9494 51.6781C71.4467 51.1805 72.2342 51.5755 73.304 50.5058C74.5737 49.2359 74.5675 47.1122 73.157 45.8716C71.9448 44.8057 70.071 44.8383 68.8914 45.9455C67.9502 46.8289 68.1594 47.4652 67.7424 47.8823L65.5292 50.0964C64.0028 49.4941 62.2126 49.7519 60.9121 50.8705C59.8334 50.5534 58.7149 50.3929 57.5797 50.3929H51.2541C48.0999 50.3929 45.1341 51.6216 42.9032 53.8525C40.6721 56.0824 39.4433 59.0483 39.4433 62.2036C39.4433 64.8283 40.6956 67.166 42.6339 68.6506H37.8683C37.905 68.4926 37.9245 68.3279 37.9245 68.1587V53.5073C37.9245 50.553 36.2014 49.0016 35.7396 48.1832C35.1038 47.2803 34.7678 46.2179 34.7678 45.1109V41.1396C35.0115 40.9236 35.1655 40.6085 35.1655 40.2581V37.2495C35.1655 36.5989 34.6362 36.0696 33.9856 36.0696H29.1571C28.5065 36.0696 27.9772 36.5989 27.9772 37.2495V40.2581C27.9772 40.6215 28.1428 40.947 28.4023 41.1632V45.0971C28.4023 46.212 28.0618 47.2804 27.4179 48.1872C26.958 48.9964 25.2181 50.5518 25.2181 53.5213V68.1586C25.2181 68.3278 25.2375 68.4924 25.2743 68.6505H22.3379C21.8768 68.6505 21.5029 69.0243 21.5029 69.4855V69.9368C21.5029 71.9899 23.1733 73.6603 25.2264 73.6603H29.4681V73.9386C29.4681 75.6267 30.8415 77.0001 32.5296 77.0001H64.47C66.1581 77.0001 67.5315 75.6267 67.5315 73.9386V73.6602H71.7733C73.8264 73.6602 75.4967 71.9898 75.4967 69.9367V69.4854C75.4968 69.0243 75.123 68.6505 74.6619 68.6505ZM68.9235 49.0627C69.7299 48.2557 69.4435 47.7174 70.0343 47.1631C70.5937 46.6381 71.4812 46.6217 72.0542 47.1256C72.7189 47.7102 72.7328 48.7155 72.1232 49.3249C71.436 50.0123 70.7671 49.4986 69.7686 50.4971L68.1122 52.1535C66.962 51.004 67.0517 51.091 66.9717 51.0153L68.9235 49.0627ZM65.8817 52.2844L67.0371 53.44C67.5815 53.9844 67.8694 54.7057 67.8694 55.4599C67.8694 56.1772 67.6101 56.8519 67.1364 57.3756C66.8491 57.6498 68.1361 56.3806 64.4997 60.0174C63.1497 61.3677 60.9526 61.3678 59.6023 60.0173L59.3042 59.7193C57.954 58.369 57.954 56.1721 59.3042 54.8219C60.1893 53.9367 60.977 53.149 61.8414 52.2845C62.3985 51.7275 63.13 51.4491 63.8616 51.4491C64.6092 51.4491 65.336 51.7388 65.8817 52.2844ZM29.6471 37.7395H33.4955V39.7659H29.6471V37.7395ZM28.7793 49.1541C29.6251 47.9633 30.0722 46.5604 30.0722 45.0971V41.4358H33.0979V45.1109C33.0979 46.564 33.5392 47.9589 34.3742 49.1446C34.8674 49.9986 36.2547 51.1835 36.2547 53.5073V54.2082H31.6359C31.1748 54.2082 30.8009 54.5819 30.8009 55.0431C30.8009 55.5044 31.1748 55.8781 31.6359 55.8781H36.2547V64.5023H26.888V55.8781H27.9802C28.4413 55.8781 28.8152 55.5044 28.8152 55.0431C28.8152 54.5819 28.4413 54.2082 27.9802 54.2082H26.888V53.5212C26.888 51.1859 28.2779 50.0163 28.7793 49.1541ZM26.888 68.1586V66.1723H36.2547V68.1586C36.2547 68.4299 36.0377 68.6505 35.7709 68.6505H27.3717C27.105 68.6505 26.888 68.4298 26.888 68.1586ZM65.8616 73.9385C65.8616 74.7059 65.2374 75.3301 64.47 75.3301H32.5296C31.7623 75.3301 31.138 74.7059 31.138 73.9385V73.6602H65.8616V73.9385ZM71.7734 71.9903H25.2264C24.2251 71.9903 23.3889 71.2699 23.2088 70.3203H73.7909C73.6107 71.27 72.7745 71.9903 71.7734 71.9903Z" fill="#FFFF00"/>
</g>
<defs>
<clipPath id="clip0">
<rect x="20" y="20" width="57" height="57" fill="white"/>
</clipPath>
</defs>
</svg>
