<svg width="94" height="94" viewBox="0 0 94 94" fill="none" xmlns="http://www.w3.org/2000/svg">
<rect width="94" height="94" rx="5" fill="#999C48" fill-opacity="0.2"/>
<path d="M38.8561 16.4457C38.4561 15.9772 37.7521 15.9217 37.2836 16.3217C36.8358 16.7041 36.7625 17.3689 37.1162 17.8398C38.7557 19.8809 38.2315 20.7062 37.4062 22.0781C35.994 23.8215 35.8332 26.2654 37.0047 28.1789C37.3126 28.7209 38.0018 28.9107 38.5438 28.6027C39.0859 28.2947 39.2756 27.6056 38.9677 27.0636C38.0308 25.3348 38.5438 24.4983 39.3134 23.2492C40.228 21.7545 41.5441 19.7136 38.8561 16.4457Z" fill="#FFFF00"/>
<path d="M48.024 16.4455C47.6539 15.953 46.9548 15.8537 46.4624 16.2237C45.9698 16.5937 45.8705 17.2929 46.2405 17.7853C46.2545 17.8038 46.269 17.822 46.2842 17.8397C47.9237 19.8807 47.3995 20.7061 46.5742 22.0779C45.162 23.8213 45.0011 26.2653 46.1726 28.1787C46.4806 28.7208 47.1697 28.9105 47.7118 28.6026C48.2539 28.2946 48.4436 27.6055 48.1356 27.0634C47.1987 25.3347 47.7118 24.4982 48.4814 23.249C49.3958 21.7543 50.7119 19.7134 48.024 16.4455Z" fill="#FFFF00"/>
<path d="M57.1588 16.4455C56.7888 15.953 56.0897 15.8537 55.5972 16.2237C55.1048 16.5937 55.0054 17.2929 55.3754 17.7853C55.3894 17.8038 55.4039 17.822 55.4189 17.8397C57.0585 19.8807 56.5343 20.7061 55.7089 22.0779C54.2968 23.8213 54.1359 26.2653 55.3074 28.1787C55.6154 28.7208 56.3045 28.9105 56.8465 28.6026C57.3886 28.2946 57.5783 27.6055 57.2704 27.0634C56.3335 25.3347 56.8465 24.4982 57.6161 23.249C58.5307 21.7543 59.8468 19.7134 57.1588 16.4455Z" fill="#FFFF00"/>
<path d="M56.7239 55.9391C63.2453 52.5911 67.351 45.8816 67.3642 38.5511C67.3642 33.7329 57.1255 31.1788 47.5002 31.1788C37.8749 31.1788 27.6362 33.7775 27.6362 38.5846C27.6662 45.908 31.7794 52.6027 38.2987 55.9391L32.4767 71.5536C32.2941 72.142 32.623 72.7668 33.2113 72.9495C33.7525 73.1175 34.3336 72.8529 34.5624 72.3344L37.3842 64.7613H57.6385L60.4603 72.3344C60.7089 72.8979 61.3673 73.1533 61.9308 72.9047C62.4493 72.6761 62.7138 72.0949 62.5459 71.5536L56.7239 55.9391ZM60.0922 35.0602C63.3267 36.0974 65.1335 37.4358 65.1335 38.5511C65.1335 39.6665 63.3267 41.0049 60.0922 42.0421V35.0602ZM52.4411 33.6102C54.2645 33.7678 56.0754 34.0473 57.8616 34.4467V42.6778C56.0754 43.0773 54.2645 43.3568 52.4411 43.5143V33.6102ZM44.7899 33.4095C45.6599 33.4095 46.5633 33.4095 47.5002 33.4095C48.4371 33.4095 49.3405 33.4095 50.2104 33.4764V43.6928C49.3293 43.6928 48.4371 43.7597 47.5002 43.7597C46.5633 43.7597 45.6599 43.7597 44.7899 43.6928V33.4095ZM37.1388 34.4021C38.925 34.0026 40.7359 33.7232 42.5593 33.5656V43.4474C40.7359 43.2899 38.925 43.0104 37.1388 42.6109V34.4021ZM34.9082 35.049V42.0086C31.6737 40.9714 29.8669 39.633 29.8669 38.5177C29.8669 37.4024 31.6626 36.0864 34.9082 35.049ZM30.3242 42.4102C33.9936 44.73 40.8863 45.9569 47.5002 45.9569C54.1141 45.9569 61.0068 44.73 64.6762 42.4102C62.7817 50.356 55.6688 55.954 47.5002 55.9279C44.9514 55.9264 42.4328 55.3747 40.1167 54.3107C35.1855 52.075 31.5687 47.6798 30.3242 42.4102ZM38.2207 62.5195L40.3398 56.8313C44.9564 58.6249 50.0774 58.6249 54.694 56.8313L56.8132 62.5195H38.2207Z" fill="#FFFF00"/>
</svg>
