<svg width="94" height="94" viewBox="0 0 94 94" fill="none" xmlns="http://www.w3.org/2000/svg">
<rect width="94" height="94" rx="5" fill="#FFFF00"/>
<path d="M48.9227 45.9451C41.1174 45.9451 34.2064 50.6355 31.3162 57.8946C31.0532 58.5565 31.376 59.3053 32.0367 59.5684C32.1934 59.6313 32.3545 59.6602 32.513 59.6602C33.0253 59.6602 33.5098 59.3532 33.7111 58.8485C36.2086 52.5761 42.1796 48.5225 48.9227 48.5225C49.6343 48.5225 50.2114 47.9461 50.2114 47.2338C50.2114 46.5215 49.6343 45.9451 48.9227 45.9451Z" fill="#373810"/>
<path d="M48.8317 32.2385C49.0834 32.4902 49.4132 32.616 49.7429 32.616C50.0726 32.616 50.4023 32.4902 50.654 32.2385C53.0918 29.8007 53.0918 25.8352 50.6547 23.3975C49.2219 21.964 49.2219 19.632 50.654 18.1999C51.1574 17.6965 51.1574 16.881 50.654 16.3776C50.1506 15.8741 49.3351 15.8741 48.8317 16.3776C46.3946 18.814 46.3946 22.7808 48.8317 25.2198C50.2639 26.652 50.2639 28.984 48.8317 30.4162C48.3283 30.9196 48.3283 31.7351 48.8317 32.2385Z" fill="#373810"/>
<path d="M36.1813 40.0952C36.433 40.3469 36.7627 40.4727 37.0925 40.4727C37.4222 40.4727 37.7519 40.3469 38.0036 40.0952C39.1847 38.9147 39.8354 37.3441 39.8354 35.674C39.8354 34.004 39.1847 32.4334 38.0036 31.2529C36.5715 29.8207 36.5715 27.4887 38.0036 26.0566C38.507 25.5532 38.507 24.7376 38.0036 24.2342C37.5002 23.7308 36.6847 23.7308 36.1813 24.2342C33.7436 26.672 33.7436 30.6375 36.1813 33.0752C36.8754 33.7699 37.258 34.6924 37.258 35.674C37.258 36.6557 36.8754 37.5781 36.1813 38.2728C35.6779 38.7762 35.6779 39.5918 36.1813 40.0952Z" fill="#373810"/>
<path d="M61.5353 39.2587C61.787 39.5104 62.1168 39.6363 62.4465 39.6363C62.7762 39.6363 63.1059 39.5104 63.3576 39.2587C65.7954 36.821 65.7954 32.8542 63.3576 30.4165C61.9255 28.9843 61.9255 26.6523 63.3576 25.2201C63.861 24.7167 63.861 23.9012 63.3576 23.3978C62.8542 22.8944 62.0387 22.8944 61.5353 23.3978C59.0976 25.8355 59.0976 29.8011 61.5353 32.2388C62.9681 33.6722 62.9681 36.003 61.5353 37.4364C61.0319 37.9398 61.0319 38.7553 61.5353 39.2587Z" fill="#373810"/>
<path d="M79.688 62.9749C79.4589 62.5735 79.0317 62.3256 78.5692 62.3256H72.9468C71.7792 51.4287 63.4473 42.7888 52.8512 41.0474C53.2731 40.352 53.53 39.5456 53.53 38.6745C53.53 36.1336 51.4635 34.0671 48.9232 34.0671C46.383 34.0671 44.3165 36.1336 44.3165 38.6745C44.3165 39.5455 44.5735 40.352 44.9953 41.0474C34.3982 42.7886 26.0666 51.4287 24.8996 62.3256H19.2886C18.8268 62.3256 18.4001 62.5735 18.1705 62.9737C17.9408 63.3752 17.9433 63.8685 18.1774 64.2662C19.2043 66.0168 20.678 67.4703 22.4349 68.4671C24.1861 69.4701 26.184 69.9999 28.2121 69.9999H69.6458C73.7516 69.9999 77.5964 67.8038 79.6792 64.2687C79.9145 63.8697 79.9177 63.3764 79.688 62.9749ZM46.8939 38.6745C46.8939 37.5557 47.8044 36.6446 48.9232 36.6446C50.0421 36.6446 50.9526 37.5557 50.9526 38.6745C50.9526 39.7933 50.0421 40.7032 48.9232 40.7032C47.8044 40.7032 46.8939 39.7933 46.8939 38.6745ZM48.9232 43.2806C59.9163 43.2806 69.0908 51.5402 70.382 62.3243H27.4645C28.7551 51.5402 37.9302 43.2806 48.9232 43.2806ZM69.6458 67.4225H28.2121C26.6326 67.4225 25.0778 67.0097 23.7117 66.2269C23.0648 65.8607 22.4676 65.4152 21.934 64.903H75.9163C74.2481 66.4937 72.0023 67.4225 69.6458 67.4225Z" fill="#373810"/>
</svg>
