<svg width="94" height="94" viewBox="0 0 94 94" fill="none" xmlns="http://www.w3.org/2000/svg">
<rect width="94" height="94" rx="5" fill="#999C48" fill-opacity="0.2"/>
<path d="M72.9395 28.5465C72.8015 28.1454 72.4508 27.8607 72.0365 27.8138L67.3774 27.2865C67.7408 26.8531 67.7233 26.1996 67.3203 25.7888C66.9172 25.378 66.2761 25.3594 65.8508 25.7313L65.3334 20.9818C65.2874 20.5605 65.0081 20.2022 64.6145 20.0623C64.2226 19.9216 63.7845 20.0235 63.4894 20.3235L56.4531 27.4959C55.6962 27.0641 54.9154 26.6726 54.1108 26.3257C51.1717 25.0593 48.0496 24.4163 44.8329 24.4163C41.6154 24.4163 38.4948 25.0593 35.5558 26.3257C32.7177 27.5493 30.1683 29.301 27.98 31.5315C25.7917 33.7619 24.073 36.3595 22.8733 39.2523C21.63 42.2478 21 45.4293 21 48.7078C21 51.9881 21.63 55.1695 22.8734 58.165C24.0731 61.0569 25.7917 63.6545 27.9801 65.885C30.1684 68.1154 32.7178 69.8671 35.5559 71.0915C38.4949 72.358 41.6155 73 44.833 73C48.0497 73 51.1718 72.3581 54.1109 71.0915C56.9483 69.8671 59.4969 68.1154 61.6852 65.885C63.8751 63.6545 65.5922 61.0568 66.7935 58.165C68.036 55.1694 68.6661 51.988 68.6661 48.7078C68.6661 45.4293 68.0361 42.2478 66.7935 39.2523C66.4524 38.4315 66.0682 37.6356 65.6461 36.8649L72.6825 29.6924C72.9776 29.3924 73.076 28.9469 72.9395 28.5465ZM63.4292 23.509L63.8275 27.1645C62.777 27.6076 60.9728 28.8418 57.3831 32.0054L57.6354 29.4134L63.4292 23.509ZM50.9291 46.4119C51.1893 47.1275 51.3337 47.9007 51.3337 48.7078C51.3337 52.3617 48.4171 55.3328 44.833 55.3328C41.249 55.3328 38.3331 52.3617 38.3331 48.7078C38.3331 45.0548 41.249 42.0828 44.833 42.0828C45.6248 42.0828 46.3834 42.2292 47.0857 42.4945V44.8503L44.0665 47.9274C43.6436 48.3584 43.6436 49.0588 44.0665 49.4891C44.2784 49.7042 44.5553 49.8126 44.833 49.8126C45.11 49.8126 45.3877 49.7042 45.5987 49.4891L48.6179 46.4119H50.9291ZM48.2338 40.5843C47.1887 40.1281 46.0398 39.875 44.833 39.875C40.0541 39.875 36.1662 43.8378 36.1662 48.7078C36.1662 53.5795 40.0541 57.5423 44.833 57.5423C49.612 57.5423 53.4999 53.5795 53.4999 48.7078C53.4999 47.4785 53.2523 46.3068 52.8033 45.2417C53.6523 44.3432 55.0981 42.8018 56.7198 41.0178C58.11 43.2426 58.9161 45.8814 58.9161 48.7079C58.9161 56.6237 52.5986 63.0627 44.8331 63.0627C37.0676 63.0627 30.7501 56.6237 30.7501 48.7079C30.7501 40.7931 37.0675 34.354 44.8331 34.354C47.6071 34.354 50.1961 35.1757 52.378 36.5926C50.6291 38.2463 49.1169 39.7181 48.2338 40.5843ZM57.1862 37.2281C54.4331 40.3352 51.6892 43.2425 50.7751 44.2033H49.2534V42.6513C50.1945 41.7213 53.0445 38.9264 56.0914 36.1209C59.4794 33.0025 61.5805 31.2768 62.8723 30.3217C61.9359 31.6382 60.2443 33.7789 57.1862 37.2281ZM60.1539 64.3243C56.0612 68.4956 50.6213 70.7924 44.833 70.7924C39.0456 70.7924 33.6049 68.4955 29.5122 64.3243C25.4203 60.1528 23.1662 54.6066 23.1662 48.7079C23.1662 42.8099 25.4203 37.2638 29.5122 33.0932C33.6048 28.9218 39.0455 26.6251 44.833 26.6251C48.6146 26.6251 52.2494 27.6069 55.455 29.4508L54.998 34.1534C54.9472 34.2003 54.8964 34.2464 54.844 34.2941C54.571 34.5457 54.2981 34.7971 54.0267 35.0478C51.3416 33.1619 48.1639 32.1453 44.8329 32.1453C40.4919 32.1453 36.4112 33.8687 33.3421 36.9968C30.273 40.1249 28.583 44.2841 28.583 48.7078C28.583 53.1332 30.273 57.2916 33.3421 60.4196C36.4112 63.5479 40.4919 65.2704 44.8329 65.2704C49.1738 65.2704 53.2538 63.5478 56.3229 60.4196C59.3936 57.2916 61.0837 53.1332 61.0837 48.7078C61.0837 45.3128 60.0855 42.0739 58.2351 39.3372C58.5271 39.0105 58.8207 38.6804 59.1127 38.3481L63.7275 37.8823C65.5365 41.1503 66.4999 44.8535 66.4999 48.7078C66.4999 54.6066 64.2465 60.1528 60.1539 64.3243ZM63.764 35.6591L61.2172 35.9163C62.4962 34.4072 63.5323 33.1141 64.3068 32.0587C64.9986 31.1158 65.4811 30.3678 65.7826 29.77C65.8318 29.6729 65.9048 29.5266 65.9762 29.3495L69.5562 29.7555L63.764 35.6591Z" fill="#FFFF00"/>
</svg>
