<svg width="94" height="94" viewBox="0 0 94 94" fill="none" xmlns="http://www.w3.org/2000/svg">
<rect width="94" height="94" rx="5" fill="#999C48" fill-opacity="0.2"/>
<path d="M29.6858 54.8698C26.8659 52.5903 25.249 49.204 25.249 45.5783C25.249 39.0021 30.5811 33.6516 37.1355 33.6516C42.0732 33.6516 46.5498 36.7706 48.2747 41.4124L46.4979 42.0773C45.0479 38.1757 41.2855 35.5543 37.1355 35.5543C31.6269 35.5543 27.1453 40.0514 27.1453 45.5783C27.1453 48.6251 28.5046 51.4717 30.8753 53.388L29.6858 54.8698Z" fill="#FFFF00"/>
<path d="M64.9083 72.8684L48.0733 42.4636L35.8107 64.6124L34.1528 63.6876L48.0733 38.5454L66.5662 71.9443L64.9083 72.8684Z" fill="#FFFF00"/>
<path d="M20.9891 72.8687L19.3315 71.9445L33.5266 46.3059L39.4806 57.0596L37.8227 57.9837L33.5266 50.2244L20.9891 72.8687Z" fill="#FFFF00"/>
<path d="M72.0099 72.8682L63.0328 56.6565L60.3114 61.5716L58.6538 60.6475L63.0328 52.7378L73.6678 71.9441L72.0099 72.8682Z" fill="#FFFF00"/>
<path d="M51.2335 56.438L48.0728 53.2666L44.9122 56.438L41.0811 52.5935L42.4218 51.2482L44.9122 53.7467L48.0728 50.5757L51.2335 53.7467L53.7239 51.2482L55.0646 52.5935L51.2335 56.438Z" fill="#FFFF00"/>
<path d="M76 71.4556H17V73.3586H76V71.4556Z" fill="#FFFF00"/>
<path d="M62.077 32.0811H47.1255V21H62.077L60.0421 26.5405L62.077 32.0811ZM49.022 30.1781H59.3565L58.0204 26.5405L59.3565 22.9027H49.022V30.1781Z" fill="#FFFF00"/>
<path d="M49.022 21.9514H47.1255V40.5044H49.022V21.9514Z" fill="#FFFF00"/>
<path d="M60.0096 40.4365H54.478V42.3392H60.0096V40.4365Z" fill="#FFFF00"/>
<path d="M65.0756 34.3579H57.2437V36.2609H65.0756V34.3579Z" fill="#FFFF00"/>
<path d="M70.3785 34.3579H67.2881V36.2609H70.3785V34.3579Z" fill="#FFFF00"/>
</svg>
