<svg width="94" height="94" viewBox="0 0 94 94" fill="none" xmlns="http://www.w3.org/2000/svg">
<rect width="94" height="94" rx="5" fill="#999C48" fill-opacity="0.2"/>
<path d="M33.1406 33.9749H31.3594V35.7499H33.1406V33.9749Z" fill="#FFFF00"/>
<path d="M33.1406 37.5251H31.3594V39.3001H33.1406V37.5251Z" fill="#FFFF00"/>
<path d="M31.3594 35.75H29.5781V37.525H31.3594V35.75Z" fill="#FFFF00"/>
<path d="M34.9219 35.75H33.1406V37.525H34.9219V35.75Z" fill="#FFFF00"/>
<path d="M26.0156 29.5374H24.2344V31.3124H26.0156V29.5374Z" fill="#FFFF00"/>
<path d="M26.0156 33.0876H24.2344V34.8626H26.0156V33.0876Z" fill="#FFFF00"/>
<path d="M24.2344 31.3125H22.4531V33.0875H24.2344V31.3125Z" fill="#FFFF00"/>
<path d="M27.7969 31.3125H26.0156V33.0875H27.7969V31.3125Z" fill="#FFFF00"/>
<path d="M49.1719 73.0251V53.5H51.8437C52.0799 53.5 52.3065 53.4065 52.4735 53.2401C52.6405 53.0737 52.7344 52.8479 52.7344 52.6125V33.975H54.5156C54.6754 33.9748 54.8321 33.9317 54.9694 33.8503C55.1067 33.769 55.2195 33.6523 55.296 33.5125C55.3725 33.3728 55.4099 33.2151 55.4042 33.056C55.3985 32.8969 55.35 32.7423 55.2637 32.6083L47.2481 20.1833C47.1674 20.0587 47.0566 19.9563 46.9259 19.8854C46.7952 19.8145 46.6488 19.7773 46.5 19.7773C46.3512 19.7773 46.2047 19.8145 46.0741 19.8854C45.9434 19.9563 45.8326 20.0587 45.7519 20.1833L37.7362 32.6083C37.65 32.7423 37.6015 32.8969 37.5958 33.056C37.5901 33.2151 37.6275 33.3728 37.704 33.5125C37.7805 33.6523 37.8933 33.769 38.0306 33.8503C38.1679 33.9317 38.3246 33.9748 38.4844 33.975H40.2656V52.6125C40.2656 52.8479 40.3594 53.0737 40.5265 53.2401C40.6935 53.4065 40.92 53.5 41.1562 53.5H43.8281V73.0251H49.1719ZM47.3906 71.25H45.6094V53.5H47.3906V71.25ZM50.9531 41.2082L42.0469 42.6903V39.1403L50.9531 37.6582V41.2082ZM42.0469 44.4919L50.9531 43.0098V46.5598L42.0469 48.0153V44.4919ZM46.5 22.3044L52.8858 32.2H40.1142L46.5 22.3044ZM50.9531 33.975V35.8832L42.0469 37.3653V33.975H50.9531ZM42.0469 51.725V49.8169L50.9531 48.3348V51.725H42.0469Z" fill="#FFFF00"/>
<path d="M37.5938 56.1624C37.5938 55.927 37.4999 55.7013 37.3329 55.5348C37.1659 55.3684 36.9393 55.2749 36.7031 55.2749C34.341 55.2749 32.0757 56.2099 30.4055 57.8743C28.7352 59.5387 27.7969 61.7961 27.7969 64.1499C27.7969 64.3853 27.8907 64.611 28.0577 64.7775C28.2248 64.9439 28.4513 65.0374 28.6875 65.0374C28.9237 65.0374 29.1502 64.9439 29.3173 64.7775C29.4843 64.611 29.5781 64.3853 29.5781 64.1499C29.5781 62.2669 30.3288 60.461 31.665 59.1294C33.0012 57.7979 34.8135 57.0499 36.7031 57.0499C36.9393 57.0499 37.1659 56.9564 37.3329 56.79C37.4999 56.6235 37.5938 56.3978 37.5938 56.1624Z" fill="#FFFF00"/>
<path d="M27.7969 47.2874C27.5607 47.2874 27.3341 47.3809 27.1671 47.5473C27.0001 47.7137 26.9062 47.9395 26.9062 48.1749C26.9062 51.6006 30.4688 54.3874 34.9219 54.3874C35.1581 54.3874 35.3846 54.2938 35.5516 54.1274C35.7187 53.961 35.8125 53.7352 35.8125 53.4999C35.8125 53.2645 35.7187 53.0387 35.5516 52.8723C35.3846 52.7059 35.1581 52.6124 34.9219 52.6124C31.4841 52.6124 28.6875 50.6244 28.6875 48.1749C28.6875 47.9395 28.5937 47.7137 28.4266 47.5473C28.2596 47.3809 28.0331 47.2874 27.7969 47.2874Z" fill="#FFFF00"/>
<path d="M39.7133 60.5378C39.933 60.4496 40.1084 60.278 40.2011 60.0608C40.2938 59.8436 40.2962 59.5985 40.2076 59.3796C40.119 59.1607 39.9468 58.9859 39.7288 58.8935C39.5108 58.8011 39.265 58.7988 39.0453 58.8871C38.3737 59.1711 37.765 59.5847 37.2545 60.1041C36.744 60.6235 36.3416 61.2384 36.0706 61.9135C35.859 62.6628 35.8172 63.4496 35.9481 64.2171C36.079 64.9845 36.3795 65.7134 36.8277 66.351C36.9031 66.4884 37.0137 66.6035 37.1482 66.6846C37.2827 66.7656 37.4364 66.8097 37.5936 66.8125C37.7534 66.8124 37.9103 66.7695 38.0478 66.6882C38.2509 66.5681 38.3979 66.3726 38.4563 66.1446C38.5148 65.9166 38.48 65.6748 38.3595 65.4723C38.0431 65.0511 37.8246 64.565 37.7199 64.0493C37.6151 63.5335 37.6268 63.001 37.7539 62.4903C38.129 61.6115 38.8313 60.9116 39.7133 60.5378Z" fill="#FFFF00"/>
<path d="M28.2422 68.5875C28.5064 68.5875 28.7647 68.5095 28.9844 68.3632C29.2041 68.2169 29.3753 68.009 29.4764 67.7657C29.5775 67.5225 29.604 67.2548 29.5525 66.9966C29.5009 66.7383 29.3737 66.5011 29.1868 66.315C29 66.1288 28.762 66.002 28.5028 65.9506C28.2437 65.8993 27.9751 65.9256 27.7309 66.0264C27.4868 66.1271 27.2782 66.2978 27.1314 66.5167C26.9846 66.7356 26.9062 66.993 26.9062 67.2563C26.9062 67.6094 27.047 67.948 27.2975 68.1976C27.5481 68.4473 27.8879 68.5875 28.2422 68.5875ZM28.2422 66.8125C28.3303 66.8125 28.4164 66.8386 28.4896 66.8873C28.5628 66.9361 28.6199 67.0054 28.6536 67.0865C28.6873 67.1676 28.6961 67.2568 28.6789 67.3429C28.6618 67.4289 28.6194 67.508 28.5571 67.5701C28.4948 67.6321 28.4154 67.6744 28.3291 67.6915C28.2427 67.7086 28.1531 67.6999 28.0718 67.6663C27.9904 67.6327 27.9209 67.5758 27.8719 67.5028C27.823 67.4299 27.7969 67.3441 27.7969 67.2563C27.7969 67.1386 27.8438 67.0257 27.9273 66.9425C28.0108 66.8593 28.1241 66.8125 28.2422 66.8125Z" fill="#FFFF00"/>
<path d="M31.3594 62.8188C31.3594 63.0821 31.4377 63.3395 31.5845 63.5584C31.7313 63.7773 31.94 63.9479 32.1841 64.0487C32.4282 64.1495 32.6968 64.1758 32.9559 64.1245C33.2151 64.0731 33.4531 63.9463 33.64 63.7601C33.8268 63.574 33.954 63.3367 34.0056 63.0785C34.0571 62.8203 34.0307 62.5526 33.9296 62.3093C33.8284 62.0661 33.6572 61.8582 33.4375 61.7119C33.2178 61.5656 32.9595 61.4875 32.6953 61.4875C32.341 61.4875 32.0012 61.6278 31.7507 61.8775C31.5001 62.1271 31.3594 62.4657 31.3594 62.8188ZM33.1406 62.8188C33.1406 62.9066 33.1145 62.9924 33.0656 63.0653C33.0166 63.1383 32.9471 63.1952 32.8657 63.2288C32.7844 63.2624 32.6948 63.2711 32.6084 63.254C32.5221 63.2369 32.4427 63.1946 32.3804 63.1326C32.3182 63.0705 32.2757 62.9914 32.2586 62.9054C32.2414 62.8193 32.2502 62.7301 32.2839 62.649C32.3176 62.5679 32.3747 62.4986 32.4479 62.4498C32.5211 62.4011 32.6072 62.375 32.6953 62.375C32.8134 62.375 32.9267 62.4218 33.0102 62.505C33.0937 62.5882 33.1406 62.7011 33.1406 62.8188Z" fill="#FFFF00"/>
<path d="M25.125 56.6062C25.125 56.8695 25.2034 57.1268 25.3501 57.3458C25.4969 57.5647 25.7056 57.7353 25.9497 57.8361C26.1938 57.9368 26.4624 57.9632 26.7216 57.9118C26.9807 57.8605 27.2188 57.7337 27.4056 57.5475C27.5924 57.3613 27.7197 57.1241 27.7712 56.8659C27.8228 56.6076 27.7963 56.34 27.6952 56.0967C27.5941 55.8535 27.4228 55.6455 27.2031 55.4993C26.9835 55.353 26.7252 55.2749 26.4609 55.2749C26.1066 55.2749 25.7668 55.4152 25.5163 55.6648C25.2658 55.9145 25.125 56.2531 25.125 56.6062ZM26.9063 56.6062C26.9063 56.6939 26.8801 56.7797 26.8312 56.8527C26.7823 56.9257 26.7127 56.9825 26.6314 57.0161C26.55 57.0497 26.4604 57.0585 26.3741 57.0414C26.2877 57.0243 26.2083 56.982 26.1461 56.9199C26.0838 56.8579 26.0414 56.7788 26.0242 56.6927C26.007 56.6066 26.0158 56.5174 26.0495 56.4363C26.0832 56.3553 26.1403 56.286 26.2135 56.2372C26.2868 56.1884 26.3729 56.1624 26.4609 56.1624C26.579 56.1624 26.6923 56.2092 26.7758 56.2924C26.8593 56.3756 26.9063 56.4885 26.9063 56.6062Z" fill="#FFFF00"/>
<path d="M64.3125 65.0374C64.5487 65.0374 64.7752 64.9439 64.9423 64.7775C65.1093 64.611 65.2031 64.3853 65.2031 64.1499C65.2031 62.9844 64.9728 61.8304 64.5252 60.7536C64.0776 59.6768 63.4216 58.6985 62.5945 57.8743C61.7675 57.0502 60.7857 56.3965 59.7052 55.9505C58.6246 55.5045 57.4665 55.2749 56.2969 55.2749C56.0607 55.2749 55.8341 55.3684 55.6671 55.5348C55.5001 55.7013 55.4062 55.927 55.4062 56.1624C55.4062 56.3978 55.5001 56.6235 55.6671 56.79C55.8341 56.9564 56.0607 57.0499 56.2969 57.0499C58.1865 57.0499 59.9988 57.7979 61.335 59.1294C62.6712 60.461 63.4219 62.2669 63.4219 64.1499C63.4219 64.3853 63.5157 64.611 63.6827 64.7775C63.8498 64.9439 64.0763 65.0374 64.3125 65.0374Z" fill="#FFFF00"/>
<path d="M65.2031 47.2874C64.9669 47.2874 64.7404 47.3809 64.5734 47.5473C64.4063 47.7137 64.3125 47.9395 64.3125 48.1749C64.3125 50.6244 61.5159 52.6124 58.0781 52.6124C57.8419 52.6124 57.6154 52.7059 57.4484 52.8723C57.2813 53.0387 57.1875 53.2645 57.1875 53.4999C57.1875 53.7352 57.2813 53.961 57.4484 54.1274C57.6154 54.2938 57.8419 54.3874 58.0781 54.3874C62.5312 54.3874 66.0938 51.6006 66.0938 48.1749C66.0938 47.9395 65.9999 47.7137 65.8329 47.5473C65.6659 47.3809 65.4393 47.2874 65.2031 47.2874Z" fill="#FFFF00"/>
<path d="M54.9521 66.6882C55.0895 66.7694 55.2464 66.8124 55.4063 66.8124C55.5608 66.8124 55.7127 66.7723 55.847 66.696C55.9813 66.6198 56.0934 66.51 56.1722 66.3775C56.6204 65.74 56.9208 65.0111 57.0517 64.2437C57.1827 63.4762 57.1408 62.6894 56.9292 61.94C56.6582 61.265 56.2559 60.6501 55.7453 60.1307C55.2348 59.6113 54.6262 59.1977 53.9545 58.9137C53.736 58.8291 53.4927 58.8339 53.2776 58.9269C53.0625 59.02 52.8929 59.1938 52.8056 59.4107C52.717 59.6273 52.7178 59.8701 52.8079 60.0861C52.8979 60.3022 53.07 60.4741 53.2866 60.5644C54.1696 60.9366 54.8724 61.637 55.246 62.5169C55.3731 63.0276 55.3847 63.5601 55.28 64.0758C55.1752 64.5916 54.9567 65.0776 54.6403 65.4989C54.5282 65.6989 54.4981 65.9344 54.5562 66.156C54.6142 66.3777 54.7561 66.5683 54.9521 66.6882Z" fill="#FFFF00"/>
<path d="M64.7578 68.5875C65.022 68.5875 65.2803 68.5095 65.5 68.3632C65.7197 68.2169 65.8909 68.009 65.9921 67.7657C66.0932 67.5225 66.1196 67.2548 66.0681 66.9966C66.0165 66.7383 65.8893 66.5011 65.7025 66.315C65.5156 66.1288 65.2776 66.002 65.0184 65.9506C64.7593 65.8993 64.4907 65.9256 64.2466 66.0264C64.0025 66.1271 63.7938 66.2978 63.647 66.5167C63.5002 66.7356 63.4219 66.993 63.4219 67.2563C63.4219 67.6094 63.5626 67.948 63.8132 68.1976C64.0637 68.4473 64.4035 68.5875 64.7578 68.5875ZM64.7578 66.8125C64.8459 66.8125 64.932 66.8386 65.0052 66.8873C65.0784 66.9361 65.1355 67.0054 65.1692 67.0865C65.2029 67.1676 65.2117 67.2568 65.1946 67.3429C65.1774 67.4289 65.135 67.508 65.0727 67.5701C65.0104 67.6321 64.9311 67.6744 64.8447 67.6915C64.7583 67.7086 64.6688 67.6999 64.5874 67.6663C64.506 67.6327 64.4365 67.5758 64.3876 67.5028C64.3386 67.4299 64.3125 67.3441 64.3125 67.2563C64.3125 67.1386 64.3594 67.0257 64.4429 66.9425C64.5264 66.8593 64.6397 66.8125 64.7578 66.8125Z" fill="#FFFF00"/>
<path d="M60.3047 61.4875C60.0405 61.4875 59.7822 61.5656 59.5625 61.7119C59.3428 61.8582 59.1716 62.0661 59.0704 62.3093C58.9693 62.5526 58.9429 62.8203 58.9944 63.0785C59.046 63.3367 59.1732 63.574 59.36 63.7601C59.5469 63.9463 59.7849 64.0731 60.0441 64.1245C60.3032 64.1758 60.5718 64.1495 60.8159 64.0487C61.06 63.9479 61.2687 63.7773 61.4155 63.5584C61.5623 63.3395 61.6406 63.0821 61.6406 62.8188C61.6406 62.4657 61.4999 62.1271 61.2493 61.8775C60.9988 61.6278 60.659 61.4875 60.3047 61.4875ZM60.3047 63.2625C60.2166 63.2625 60.1305 63.2365 60.0573 63.1878C59.9841 63.139 59.927 63.0697 59.8933 62.9886C59.8596 62.9075 59.8508 62.8183 59.8679 62.7322C59.8851 62.6461 59.9275 62.5671 59.9898 62.505C60.0521 62.443 60.1314 62.4007 60.2178 62.3836C60.3042 62.3665 60.3937 62.3752 60.4751 62.4088C60.5565 62.4424 60.626 62.4993 60.6749 62.5723C60.7239 62.6452 60.75 62.731 60.75 62.8188C60.75 62.9365 60.7031 63.0494 60.6196 63.1326C60.5361 63.2158 60.4228 63.2625 60.3047 63.2625Z" fill="#FFFF00"/>
<path d="M67.875 56.6062C67.875 56.3429 67.7966 56.0855 67.6499 55.8666C67.5031 55.6476 67.2944 55.477 67.0503 55.3762C66.8062 55.2755 66.5376 55.2491 66.2784 55.3005C66.0193 55.3518 65.7812 55.4786 65.5944 55.6648C65.4076 55.851 65.2803 56.0882 65.2288 56.3464C65.1772 56.6047 65.2037 56.8723 65.3048 57.1156C65.4059 57.3589 65.5772 57.5668 65.7969 57.7131C66.0165 57.8593 66.2748 57.9374 66.5391 57.9374C66.8934 57.9374 67.2332 57.7972 67.4837 57.5475C67.7343 57.2978 67.875 56.9592 67.875 56.6062ZM66.0937 56.6062C66.0937 56.5184 66.1199 56.4326 66.1688 56.3596C66.2177 56.2866 66.2873 56.2298 66.3686 56.1962C66.45 56.1626 66.5396 56.1538 66.6259 56.1709C66.7123 56.1881 66.7917 56.2303 66.8539 56.2924C66.9162 56.3544 66.9586 56.4335 66.9758 56.5196C66.993 56.6057 66.9842 56.6949 66.9505 56.776C66.9168 56.8571 66.8597 56.9264 66.7865 56.9751C66.7132 57.0239 66.6271 57.0499 66.5391 57.0499C66.421 57.0499 66.3077 57.0032 66.2242 56.9199C66.1407 56.8367 66.0937 56.7238 66.0937 56.6062Z" fill="#FFFF00"/>
<path d="M54.5156 37.525V44.6249C54.5156 44.8603 54.6095 45.0861 54.7765 45.2525C54.9435 45.4189 55.17 45.5124 55.4062 45.5124C55.6425 45.5124 55.869 45.4189 56.036 45.2525C56.203 45.0861 56.2969 44.8603 56.2969 44.6249V37.525C56.2969 37.2896 56.203 37.0638 56.036 36.8974C55.869 36.731 55.6425 36.6375 55.4062 36.6375C55.17 36.6375 54.9435 36.731 54.7765 36.8974C54.6095 37.0638 54.5156 37.2896 54.5156 37.525Z" fill="#FFFF00"/>
<path d="M59.8594 48.175V41.075C59.8594 40.8396 59.7655 40.6139 59.5985 40.4474C59.4315 40.281 59.205 40.1875 58.9688 40.1875C58.7325 40.1875 58.506 40.281 58.339 40.4474C58.172 40.6139 58.0781 40.8396 58.0781 41.075V48.175C58.0781 48.4104 58.172 48.6361 58.339 48.8026C58.506 48.969 58.7325 49.0625 58.9688 49.0625C59.205 49.0625 59.4315 48.969 59.5985 48.8026C59.7655 48.6361 59.8594 48.4104 59.8594 48.175Z" fill="#FFFF00"/>
</svg>
