<svg width="94" height="94" viewBox="0 0 94 94" fill="none" xmlns="http://www.w3.org/2000/svg">
<rect width="94" height="94" rx="5" fill="#FFFF00"/>
<path d="M73.8 27.1499H25.5C23.1804 27.1499 21.3 29.0303 21.3 31.3499V64.9499H16.05C15.4701 64.9499 15 65.42 15 65.9999C15 68.3195 16.8804 70.1999 19.2 70.1999H49.65V82.7999C49.6501 83.3798 50.1203 83.8498 50.7003 83.8496C50.9786 83.8496 51.2455 83.739 51.4423 83.5423L57 77.9846L62.5576 83.5423C62.7545 83.7391 63.0215 83.8499 63.3 83.8499C63.4381 83.8503 63.5747 83.8233 63.7021 83.7701C64.0945 83.6075 64.3501 83.2245 64.35 82.7999V70.1999H67.5C69.8196 70.1999 71.7 68.3195 71.7 65.9999V32.3999H76.95C77.5299 32.3999 78 31.9298 78 31.3499C78 29.0303 76.1196 27.1499 73.8 27.1499ZM69.6 31.3499V64.9499H65.4V67.0499H69.3175C68.9426 67.6993 68.2498 68.0995 67.5 68.0999H64.35V67.0499H62.25V80.2652L57.7423 75.7575C57.3323 75.3477 56.6677 75.3477 56.2576 75.7575L51.75 80.2652V67.0499H49.65V68.0999H19.2C18.4502 68.0995 17.7574 67.6993 17.3824 67.0499H22.35H48.6V64.9499H23.4V31.3499C23.4 30.19 24.3401 29.2499 25.5 29.2499H70.1838C69.8059 29.8855 69.6043 30.6104 69.6 31.3499ZM71.9824 30.2999C72.5634 29.2961 73.848 28.9533 74.852 29.5343C75.1697 29.7182 75.4337 29.9823 75.6175 30.2999H71.9824Z" fill="#373810"/>
<path d="M66.8988 60.0097L65.5537 57.6L66.904 55.1923C67.1886 54.687 67.0097 54.0468 66.5045 53.7622C66.4791 53.7479 66.4529 53.7345 66.4263 53.7223L63.92 52.5747L63.5966 49.8342C63.5282 49.2584 63.0058 48.8471 62.43 48.9154C62.4032 48.9186 62.3766 48.9228 62.3502 48.928L59.6433 49.4646L57.7712 47.437C57.3521 47.0114 56.6673 47.006 56.2417 47.4251C56.2376 47.429 56.2337 47.4331 56.2298 47.437L54.3576 49.4646L51.6507 48.928C51.0819 48.8156 50.5294 49.1855 50.417 49.7544C50.4117 49.7808 50.4075 49.8074 50.4044 49.8342L50.081 52.5747L47.5746 53.7244C47.0474 53.9658 46.8156 54.589 47.057 55.1162C47.0692 55.1429 47.0824 55.169 47.0969 55.1944L48.4472 57.6L47.0969 60.0076C46.8123 60.5129 46.9912 61.1532 47.4964 61.4377C47.5218 61.452 47.548 61.4654 47.5746 61.4776L50.081 62.6274L50.4044 65.37C50.4727 65.9458 50.9951 66.3571 51.5709 66.2887C51.5977 66.2856 51.6243 66.2814 51.6507 66.2761L54.3576 65.7396L56.2298 67.7671C56.6236 68.1928 57.2879 68.2185 57.7135 67.8248C57.7335 67.8062 57.7526 67.7871 57.7712 67.7671L59.6433 65.7396L62.3502 66.2761C62.6371 66.3348 62.9354 66.2692 63.1713 66.0955C63.406 65.9225 63.5581 65.6597 63.5913 65.37L63.9147 62.6295L66.421 61.4797C66.9483 61.2384 67.1801 60.6152 66.9387 60.088C66.9265 60.0613 66.9131 60.0352 66.8988 60.0097ZM63.4348 58.1124L64.5153 60.0402L62.5077 60.961C62.1748 61.1138 61.9457 61.4289 61.9029 61.7926L61.6446 63.9903L59.4742 63.5608C59.1166 63.4865 58.7463 63.6062 58.4999 63.8758L57.0005 65.5012L55.5011 63.8779C55.3023 63.6631 55.023 63.5409 54.7304 63.5409C54.6618 63.5405 54.5936 63.5476 54.5267 63.5619L52.3563 63.9913L52.098 61.7937C52.0552 61.43 51.8261 61.1149 51.4932 60.9621L49.4856 60.0412L50.5661 58.1134C50.7467 57.7932 50.751 57.4043 50.5661 57.0865V57.0907L49.4856 55.1629L51.4932 54.2421C51.8261 54.0893 52.0552 53.7742 52.098 53.4105L52.3563 51.2128L54.5267 51.6423C54.8842 51.7157 55.254 51.5961 55.5011 51.3273L57.0005 49.6987L58.4999 51.322C58.7462 51.5918 59.1166 51.7115 59.4742 51.637L61.6446 51.2076L61.9029 53.4052C61.9457 53.7689 62.1748 54.0841 62.5077 54.2368L64.5153 55.1577L63.4348 57.0855C63.2561 57.4044 63.2561 57.7934 63.4348 58.1124Z" fill="#373810"/>
<path d="M57 52.3501C54.1006 52.3501 51.75 54.7007 51.75 57.6001C51.7534 60.4981 54.102 62.8466 57 62.8501C59.8994 62.8501 62.25 60.4995 62.25 57.6001C62.25 54.7007 59.8994 52.3501 57 52.3501ZM57 60.7501C55.2603 60.7501 53.85 59.3398 53.85 57.6001C53.85 55.8604 55.2603 54.4501 57 54.4501C58.7397 54.4501 60.15 55.8604 60.15 57.6001C60.15 59.3398 58.7397 60.7501 57 60.7501Z" fill="#373810"/>
<path d="M54.9001 33.45H38.1001V35.55H54.9001V33.45Z" fill="#373810"/>
<path d="M65.4001 39.75H27.6001V41.85H65.4001V39.75Z" fill="#373810"/>
<path d="M65.4001 43.95H27.6001V46.05H65.4001V43.95Z" fill="#373810"/>
<path d="M42.2999 57.6001H28.6499V59.7001H42.2999V57.6001Z" fill="#373810"/>
</svg>
