<svg width="94" height="94" viewBox="0 0 94 94" fill="none" xmlns="http://www.w3.org/2000/svg">
<rect width="94" height="94" rx="5" fill="#999C48" fill-opacity="0.2"/>
<path d="M55.3144 18C52.1922 18 49.2562 19.2201 47.0471 21.4354C44.7568 23.7321 43.546 26.8567 43.6484 30.0788L27.9967 49.4995C26.5558 51.2883 26.6911 53.8629 28.3125 55.4889L29.02 56.1984V58.7433C29.02 62.3726 31.9638 65.3246 35.5828 65.3246H49.9141C52.2534 65.3246 54.157 67.2336 54.157 69.5794C54.157 71.9259 52.2534 73.8349 49.9141 73.8349H37.8067C37.1662 73.8349 36.6468 74.3557 36.6468 74.9981C36.6468 75.6405 37.1662 76.1613 37.8067 76.1613H49.9141C53.5326 76.1613 56.4769 73.2087 56.4769 69.5794C56.4769 65.9501 53.5332 62.9981 49.9141 62.9981H35.5822C33.2429 62.9981 31.3393 61.0891 31.3393 58.7433V57.8741C31.7994 58.0318 32.286 58.1184 32.7867 58.1184C33.8055 58.1184 34.8037 57.7649 35.5964 57.1219L54.9522 41.4338C55.0798 41.4384 55.2087 41.4494 55.3356 41.4494C58.416 41.4494 61.3797 40.226 63.581 38.0178C68.1397 33.4464 68.1397 26.0082 63.581 21.436C61.3726 19.2201 58.4366 18 55.3144 18ZM47.5581 24.9367C48.4983 27.585 49.695 30.4375 52.1503 32.8996C54.1422 34.8978 56.6058 36.4992 59.6185 37.7729C58.1009 38.5904 56.3738 38.9749 54.6197 38.836C54.6191 38.836 54.6184 38.836 54.6178 38.836C54.6165 38.836 54.6158 38.8353 54.6145 38.8353C52.448 38.6731 50.4078 37.7335 48.8689 36.1903C47.3294 34.6477 46.393 32.6011 46.2313 30.4284C46.2313 30.4284 46.2313 30.4284 46.2313 30.4278C46.2313 30.4258 46.2313 30.4246 46.2313 30.4226C46.0785 28.4794 46.5567 26.5659 47.5581 24.9367ZM31.4469 54.977L30.1349 53.6613C29.4486 52.9724 29.3912 51.8822 30.0015 51.1248L30.7516 50.1936L34.9049 54.3586L33.9763 55.1108C33.241 55.7066 32.1146 55.6446 31.4469 54.977ZM36.4174 53.1327L31.9741 48.6769L44.2342 33.4645C44.8045 35.1673 45.7621 36.7286 47.0471 38.0172C48.3314 39.3058 49.889 40.2661 51.587 40.838L36.4174 53.1327ZM61.7599 36.1896C61.6729 36.2762 61.5775 36.3512 61.4879 36.4339C58.1872 35.1905 55.567 33.584 53.5177 31.5283C51.0167 29.0196 49.9792 26.0418 48.9868 23.157C50.6952 21.5007 52.9332 20.5849 55.3144 20.5849C57.7484 20.5849 60.0373 21.5362 61.7599 23.2636C65.3132 26.827 65.3132 32.6256 61.7599 36.1896Z" fill="#FFFF00"/>
<path d="M43.2555 40.12L41.5168 41.9224C41.0219 42.4355 41.0354 43.2536 41.5471 43.7499C41.7978 43.9923 42.1206 44.1137 42.4435 44.1137C42.7799 44.1137 43.1169 43.9819 43.3702 43.7202L45.1088 41.9178C45.6037 41.4047 45.5902 40.5866 45.0785 40.0903C44.5662 39.5933 43.7504 39.6062 43.2555 40.12Z" fill="#FFFF00"/>
</svg>
