<svg width="94" height="94" viewBox="0 0 94 94" fill="none" xmlns="http://www.w3.org/2000/svg">
<rect width="94" height="94" rx="5" fill="#FFFF00"/>
<path d="M40.1499 35.1219C35.9598 35.1219 32.5369 38.5449 32.5369 42.735C32.5369 46.9252 35.9598 50.3481 40.1499 50.3481C44.3401 50.3481 47.763 46.9252 47.763 42.735C47.763 38.4859 44.3991 35.1219 40.1499 35.1219ZM40.1499 48.0465C37.1991 48.0465 34.8385 45.6858 34.8385 42.735C34.8385 39.7842 37.1991 37.4236 40.1499 37.4236C43.1007 37.4236 45.4614 39.7842 45.4614 42.735C45.4614 45.6268 43.1007 48.0465 40.1499 48.0465Z" fill="#373810"/>
<path d="M70.4838 22.3744L70.1297 21.9613L69.8936 21.7252C69.5395 21.4301 69.1264 21.076 68.7133 20.781C63.992 17.122 58.8576 16.1187 53.4281 17.7711C47.6445 19.6006 43.6314 23.3777 41.6249 28.8662C39.3823 27.9219 36.9626 27.3908 34.543 27.3908H33.6577C33.1856 27.4498 32.6545 27.4498 32.1823 27.5678C26.2217 28.276 21.9135 31.1678 19.2578 36.1842C15.7168 42.912 16.366 49.8759 21.0283 56.2496C26.1037 63.2725 33.0676 65.9873 41.3888 64.3348C44.3396 63.7447 46.7593 64.4529 48.7658 66.6364C51.7166 69.7053 54.6674 72.7151 57.2051 75.1938C57.6183 75.6069 58.2674 75.902 58.8576 75.961C59.0346 75.961 59.2117 76.02 59.3887 76.02C61.9854 76.02 64.4051 74.0725 64.9953 71.4758C65.2903 70.3545 65.4084 68.9381 64.051 67.6987C62.4576 66.1643 60.8641 64.5119 59.2707 62.9184C58.1494 61.7381 57.0281 60.6168 55.8478 59.4365C54.0183 57.666 53.2511 55.6004 53.5461 53.2988L62.5166 53.3578C60.8051 55.2463 60.0379 57.8431 60.1559 61.384C60.1559 62.2102 60.215 63.0365 60.1559 63.8627C60.9822 64.7479 61.8674 65.6332 62.7527 66.4594V65.102C62.7527 63.5086 62.8117 61.8561 62.8117 60.2627C62.8117 57.2529 64.051 55.0103 66.5887 53.5349C68.7133 52.2955 70.5428 50.5841 72.1362 48.3415C77.9198 40.6104 77.0936 29.2203 70.4838 22.3744ZM41.0347 60.9119C40.2085 61.7971 39.3233 62.2102 38.261 62.1512H37.0216C28.0512 62.0922 20.4971 54.6562 19.848 45.2726C19.3168 37.6596 25.1594 30.8137 32.8905 30.1055C38.202 29.6334 43.5134 31.817 47.2904 36.0071C50.6544 39.7251 52.2478 44.4464 51.7166 49.3447C51.6576 50.1119 51.3626 50.6431 50.8904 51.1742C47.6445 54.2431 44.2806 57.548 41.0347 60.9119ZM54.9035 62.1512C56.1429 63.3315 57.3822 64.6299 58.6215 65.8692C59.1527 66.4594 59.7428 66.9905 60.274 67.5807L60.8641 68.1709L62.2805 69.5872C62.9297 70.2364 62.6346 71.3577 61.5723 72.42C60.5691 73.4233 59.4478 73.7184 58.7986 73.0102L56.733 70.9446C54.9035 69.0561 52.956 67.1676 51.1265 65.2201C48.9429 62.9184 46.7003 61.6791 44.2216 61.5021L50.9494 54.8332L51.0085 54.8923V54.8332C51.0675 57.3709 52.3658 59.7316 54.9035 62.1512ZM67.0608 50.0529C66.4707 50.5251 65.9395 50.7611 65.1723 50.7021C61.6313 50.6431 57.9133 50.6431 54.1953 50.6431C54.5494 48.6365 54.5494 46.63 54.1953 44.3874C53.2511 38.3678 49.356 33.1153 44.1626 30.1055C44.9298 28.158 45.9921 26.2695 47.4675 24.617C52.4248 18.8334 61.3953 18.1843 67.2969 23.0826C71.428 26.5055 73.6116 31.817 73.3165 37.4235C73.0805 42.4399 70.8379 46.9251 67.0608 50.0529Z" fill="#373810"/>
</svg>
