<svg width="94" height="94" viewBox="0 0 94 94" fill="none" xmlns="http://www.w3.org/2000/svg">
<rect width="94" height="94" rx="5" fill="#999C48" fill-opacity="0.2"/>
<path d="M38.1482 36.1207C33.9584 36.1207 30.5356 39.5434 30.5356 43.7333C30.5356 47.9232 33.9584 51.3459 38.1482 51.3459C42.3381 51.3459 45.7608 47.9232 45.7608 43.7333C45.7608 39.4844 42.3971 36.1207 38.1482 36.1207ZM38.1482 49.0444C35.1976 49.0444 32.8371 46.6839 32.8371 43.7333C32.8371 40.7827 35.1976 38.4222 38.1482 38.4222C41.0988 38.4222 43.4593 40.7827 43.4593 43.7333C43.4593 46.6249 41.0988 49.0444 38.1482 49.0444Z" fill="#FFFF00"/>
<path d="M68.4803 23.374L68.1262 22.961L67.8901 22.7249C67.5361 22.4298 67.123 22.0758 66.7099 21.7807C61.9889 18.122 56.8548 17.1188 51.4257 18.7711C45.6425 20.6005 41.6297 24.3773 39.6233 29.8654C37.3808 28.9212 34.9613 28.3901 32.5418 28.3901H31.6566C31.1845 28.4491 30.6534 28.4491 30.1813 28.5671C24.2211 29.2753 19.9132 32.1669 17.2577 37.1829C13.7169 43.9103 14.3661 50.8737 19.028 57.247C24.1031 64.2695 31.0665 66.9841 39.3872 65.3317C42.3378 64.7416 44.7573 65.4497 46.7638 67.6332C49.7144 70.7018 52.665 73.7114 55.2025 76.19C55.6156 76.603 56.2647 76.8981 56.8549 76.9571C57.0319 76.9571 57.2089 77.0161 57.386 77.0161C59.9825 77.0161 62.402 75.0687 62.9921 72.4722C63.2872 71.351 63.4052 69.9347 62.0479 68.6954C60.4546 67.1611 58.8613 65.5088 57.2679 63.9154C56.1467 62.7352 55.0255 61.6139 53.8452 60.4337C52.0159 58.6633 51.2487 56.5979 51.5438 54.2964L60.5136 54.3554C58.8022 56.2438 58.0351 58.8404 58.1531 62.3811C58.1531 63.2073 58.2121 64.0334 58.1531 64.8596C58.9793 65.7448 59.8645 66.63 60.7497 67.4562V66.0989C60.7497 64.5055 60.8087 62.8532 60.8087 61.2599C60.8087 58.2503 62.0479 56.0078 64.5854 54.5325C66.7099 53.2932 68.5393 51.5819 70.1326 49.3394C75.9158 41.6088 75.0896 30.2195 68.4803 23.374ZM39.0332 61.909C38.207 62.7942 37.3218 63.2073 36.2596 63.1483H35.0203C26.0505 63.0892 18.4969 55.6537 17.8478 46.2708C17.3167 38.6582 23.1589 31.8128 30.8895 31.1046C36.2006 30.6325 41.5117 32.816 45.2885 37.0059C48.6522 40.7236 50.2455 45.4446 49.7144 50.3426C49.6554 51.1098 49.3603 51.6409 48.8882 52.172C45.6425 55.2406 42.2788 58.5453 39.0332 61.909ZM52.901 63.1483C54.1403 64.3285 55.3795 65.6268 56.6188 66.866C57.1499 67.4562 57.74 67.9873 58.2711 68.5774L58.8613 69.1675L60.2776 70.5838C60.9267 71.2329 60.6316 72.3542 59.5694 73.4164C58.5662 74.4196 57.445 74.7147 56.7958 74.0065L54.7304 71.9411C52.901 70.0527 50.9536 68.1643 49.1242 66.2169C46.9408 63.9154 44.6983 62.6762 42.2198 62.4991L48.9472 55.8307L49.0062 55.8898V55.8307C49.0652 58.3683 50.3635 60.7288 52.901 63.1483ZM65.0575 51.0508C64.4674 51.5229 63.9363 51.7589 63.1692 51.6999C59.6284 51.6409 55.9107 51.6409 52.1929 51.6409C52.547 49.6345 52.547 47.6281 52.1929 45.3856C51.2487 39.3664 47.3539 34.1143 42.1608 31.1046C42.928 29.1572 43.9902 27.2688 45.4655 25.6165C50.4225 19.8333 59.3924 19.1842 65.2936 24.0822C69.4244 27.5049 71.6079 32.816 71.3128 38.4222C71.0768 43.4382 68.8343 47.9231 65.0575 51.0508Z" fill="#FFFF00"/>
</svg>
