<svg width="94" height="94" viewBox="0 0 94 94" fill="none" xmlns="http://www.w3.org/2000/svg">
<rect width="94" height="94" rx="5" fill="#999C48" fill-opacity="0.2"/>
<path d="M61.5526 66.0427C61.5368 66.0404 61.5233 66.0404 61.5076 66.0427H32.5456C32.2351 66.0427 31.9381 65.9112 31.7243 65.6846C31.5128 65.4556 31.4026 65.1496 31.4228 64.8368L33.1171 38.2534H31.6118C30.9908 38.2534 30.4868 37.7456 30.4868 37.12V29.4927C30.4868 28.8671 30.9908 28.3594 31.6118 28.3594H37.7071C38.3281 28.3594 38.8321 28.8671 38.8321 29.4927V33.8084H42.0293V29.4927C42.0293 28.8671 42.5333 28.3594 43.1543 28.3594H50.8943C51.5153 28.3594 52.0193 28.8671 52.0193 29.4927V33.8084H55.2166V29.4927C55.2166 28.8671 55.7206 28.3594 56.3416 28.3594H62.4368C63.0578 28.3594 63.5618 28.8671 63.5618 29.4927V37.12C63.5618 37.7456 63.0578 38.2534 62.4368 38.2534H60.9316L62.6056 64.5218C62.6483 64.6442 62.6731 64.7734 62.6731 64.9094C62.6776 65.535 62.1758 66.0427 61.5526 66.0427ZM33.7448 63.776H60.3083L58.6141 37.1926C58.5938 36.8798 58.7041 36.5738 58.9156 36.3448C59.1293 36.1159 59.4263 35.9867 59.7368 35.9867H61.3163V30.626H57.4711V34.9418C57.4711 35.5674 56.9671 36.0751 56.3461 36.0751H50.8988C50.2778 36.0751 49.7738 35.5674 49.7738 34.9418V30.626H44.2838V34.9418C44.2838 35.5674 43.7798 36.0751 43.1588 36.0751H37.7093C37.0883 36.0751 36.5843 35.5674 36.5843 34.9418V30.626H32.7368V35.9867H34.3163C34.6268 35.9867 34.9238 36.1182 35.1376 36.3448C35.3491 36.5738 35.4593 36.8798 35.4391 37.1926L33.7448 63.776Z" fill="#FFFF00"/>
<path d="M51.9275 66.0425H42.1265C41.5055 66.0425 41.0015 65.5348 41.0015 64.9092V56.314C41.0015 55.6884 41.5055 55.1807 42.1265 55.1807C42.7475 55.1807 43.2515 55.6884 43.2515 56.314V63.7759H50.8025V56.314C50.8025 55.6884 51.3065 55.1807 51.9275 55.1807C52.5485 55.1807 53.0525 55.6884 53.0525 56.314V64.9092C53.0525 65.5348 52.5507 66.0425 51.9275 66.0425Z" fill="#FFFF00"/>
<path d="M51.9168 57.3407C51.2958 57.3407 50.7918 56.833 50.7918 56.2074C50.7918 54.1357 49.102 52.4493 47.0253 52.4493C44.9485 52.4493 43.2588 54.1357 43.2588 56.2074C43.2588 56.833 42.7548 57.3407 42.1338 57.3407C41.5128 57.3407 41.0088 56.833 41.0088 56.2074C41.0088 52.8845 43.7088 50.1826 47.0253 50.1826C50.344 50.1826 53.0418 52.8845 53.0418 56.2074C53.0418 56.833 52.5378 57.3407 51.9168 57.3407Z" fill="#FFFF00"/>
<path d="M49.6797 46.7943H44.3765C43.7555 46.7943 43.2515 46.2866 43.2515 45.661V41.4291C43.2515 40.8035 43.7555 40.2958 44.3765 40.2958C44.9975 40.2958 45.5015 40.8035 45.5015 41.4291V44.5276H48.5547V41.4291C48.5547 40.8035 49.0587 40.2958 49.6797 40.2958C50.3007 40.2958 50.8047 40.8035 50.8047 41.4291V45.661C50.8047 46.2888 50.3007 46.7943 49.6797 46.7943Z" fill="#FFFF00"/>
<path d="M49.6727 42.5059C49.0517 42.5059 48.5477 41.9982 48.5477 41.3726C48.5477 40.5385 47.8659 39.8585 47.0267 39.8585C46.1874 39.8585 45.5034 40.5385 45.5034 41.3726C45.5034 41.9982 44.9994 42.5059 44.3784 42.5059C43.7574 42.5059 43.2534 41.9982 43.2534 41.3726C43.2534 39.2873 44.9454 37.5918 47.0267 37.5918C49.1057 37.5918 50.7977 39.2873 50.7977 41.3726C50.7977 41.9982 50.2937 42.5059 49.6727 42.5059Z" fill="#FFFF00"/>
<path d="M29.6431 56.9149H24.3398C23.7188 56.9149 23.2148 56.4071 23.2148 55.7815V51.5474C23.2148 50.9218 23.7188 50.4141 24.3398 50.4141C24.9608 50.4141 25.4648 50.9218 25.4648 51.5474V54.6482H28.5181V51.5474C28.5181 50.9218 29.0221 50.4141 29.6431 50.4141C30.2641 50.4141 30.7681 50.9218 30.7681 51.5474V55.7815C30.7681 56.4094 30.2663 56.9149 29.6431 56.9149Z" fill="#FFFF00"/>
<path d="M29.636 52.6242C29.015 52.6242 28.511 52.1165 28.511 51.4909C28.511 50.6567 27.8293 49.9767 26.99 49.9767C26.1508 49.9767 25.4668 50.6567 25.4668 51.4909C25.4668 52.1165 24.9628 52.6242 24.3418 52.6242C23.7208 52.6242 23.2168 52.1165 23.2168 51.4909C23.2168 49.4055 24.9088 47.7101 26.99 47.7101C29.069 47.7101 30.761 49.4055 30.761 51.4909C30.761 52.1165 30.2593 52.6242 29.636 52.6242Z" fill="#FFFF00"/>
<path d="M69.7738 56.9149H64.4683C63.8473 56.9149 63.3433 56.4071 63.3433 55.7815V51.5474C63.3433 50.9218 63.8473 50.4141 64.4683 50.4141C65.0893 50.4141 65.5933 50.9218 65.5933 51.5474V54.6482H68.6488V51.5474C68.6488 50.9218 69.1528 50.4141 69.7738 50.4141C70.3948 50.4141 70.8988 50.9218 70.8988 51.5474V55.7815C70.8988 56.4094 70.3948 56.9149 69.7738 56.9149Z" fill="#FFFF00"/>
<path d="M69.7672 52.6242C69.1462 52.6242 68.6422 52.1165 68.6422 51.4909C68.6422 50.6567 67.9582 49.9767 67.119 49.9767C66.2797 49.9767 65.5957 50.6567 65.5957 51.4909C65.5957 52.1165 65.0917 52.6242 64.4707 52.6242C63.8497 52.6242 63.3457 52.1165 63.3457 51.4909C63.3457 49.4055 65.0377 47.7101 67.119 47.7101C69.2002 47.7101 70.8922 49.4055 70.8922 51.4909C70.8922 52.1165 70.3882 52.6242 69.7672 52.6242Z" fill="#FFFF00"/>
<path d="M32.4691 66.0423H21.4756C20.8546 66.0423 20.3506 65.5346 20.3506 64.909V39.715C20.3506 39.0894 20.8546 38.5817 21.4756 38.5817H27.1591C27.7801 38.5817 28.2841 39.0894 28.2841 39.715V44.0194H33.6301C33.9406 44.0194 34.2376 44.1486 34.4491 44.3753C34.6628 44.6019 34.7731 44.9057 34.7528 45.2185L33.5896 64.9725C33.5558 65.5731 33.0653 66.0423 32.4691 66.0423ZM22.6006 63.7757H31.4093L32.4398 46.2883H27.1591C26.5381 46.2883 26.0341 45.7806 26.0341 45.155V40.8483H22.6006V63.7757Z" fill="#FFFF00"/>
<path d="M72.5236 66.0423H61.5301C60.9338 66.0423 60.4433 65.5754 60.4073 64.9747L59.2441 45.2207C59.2261 44.9079 59.3363 44.6042 59.5478 44.3775C59.7593 44.1486 60.0563 44.0217 60.3668 44.0217H65.7128V39.715C65.7128 39.0894 66.2168 38.5817 66.8378 38.5817H72.5214C73.1424 38.5817 73.6464 39.0894 73.6464 39.715V64.9067C73.6486 65.5346 73.1446 66.0423 72.5236 66.0423ZM62.5898 63.7757H71.3986V40.8483H67.9651V45.1527C67.9651 45.7783 67.4611 46.2861 66.8401 46.2861H61.5616L62.5898 63.7757Z" fill="#FFFF00"/>
</svg>
